G04 #@! TF.FileFunction,Legend,Top*
%FSLAX45Y45*%
G04 Gerber Fmt 4.5, Leading zero omitted, Abs format (unit mm)*
G04 Created by KiCad (PCBNEW (2015-10-12 BZR 6264)-product) date Wed 14 Oct 2015 19:18:34 CEST*
%MOMM*%
G01*
G04 APERTURE LIST*
%ADD10C,0.100000*%
%ADD11C,0.120000*%
%ADD12C,0.300000*%
%ADD13C,0.150000*%
G04 APERTURE END LIST*
D10*
D11*
X170952Y-270238D02*
X170952Y-170238D01*
X213809Y-270238D02*
X213809Y-217857D01*
X209048Y-208333D01*
X199524Y-203571D01*
X185238Y-203571D01*
X175714Y-208333D01*
X170952Y-213095D01*
X247143Y-203571D02*
X285238Y-203571D01*
X261428Y-170238D02*
X261428Y-255952D01*
X266190Y-265476D01*
X275714Y-270238D01*
X285238Y-270238D01*
X304286Y-203571D02*
X342381Y-203571D01*
X318571Y-170238D02*
X318571Y-255952D01*
X323333Y-265476D01*
X332857Y-270238D01*
X342381Y-270238D01*
X375714Y-203571D02*
X375714Y-303571D01*
X375714Y-208333D02*
X385238Y-203571D01*
X404286Y-203571D01*
X413810Y-208333D01*
X418571Y-213095D01*
X423333Y-222619D01*
X423333Y-251190D01*
X418571Y-260714D01*
X413810Y-265476D01*
X404286Y-270238D01*
X385238Y-270238D01*
X375714Y-265476D01*
X461429Y-265476D02*
X470952Y-270238D01*
X490000Y-270238D01*
X499524Y-265476D01*
X504286Y-255952D01*
X504286Y-251190D01*
X499524Y-241667D01*
X490000Y-236905D01*
X475714Y-236905D01*
X466190Y-232143D01*
X461429Y-222619D01*
X461429Y-217857D01*
X466190Y-208333D01*
X475714Y-203571D01*
X490000Y-203571D01*
X499524Y-208333D01*
X547143Y-260714D02*
X551905Y-265476D01*
X547143Y-270238D01*
X542381Y-265476D01*
X547143Y-260714D01*
X547143Y-270238D01*
X547143Y-208333D02*
X551905Y-213095D01*
X547143Y-217857D01*
X542381Y-213095D01*
X547143Y-208333D01*
X547143Y-217857D01*
X666191Y-165476D02*
X580476Y-294048D01*
X770952Y-165476D02*
X685238Y-294048D01*
X847143Y-203571D02*
X847143Y-284524D01*
X842381Y-294048D01*
X837619Y-298810D01*
X828095Y-303571D01*
X813809Y-303571D01*
X804286Y-298810D01*
X847143Y-265476D02*
X837619Y-270238D01*
X818571Y-270238D01*
X809048Y-265476D01*
X804286Y-260714D01*
X799524Y-251190D01*
X799524Y-222619D01*
X804286Y-213095D01*
X809048Y-208333D01*
X818571Y-203571D01*
X837619Y-203571D01*
X847143Y-208333D01*
X894762Y-270238D02*
X894762Y-203571D01*
X894762Y-170238D02*
X890000Y-175000D01*
X894762Y-179762D01*
X899524Y-175000D01*
X894762Y-170238D01*
X894762Y-179762D01*
X928095Y-203571D02*
X966190Y-203571D01*
X942381Y-170238D02*
X942381Y-255952D01*
X947143Y-265476D01*
X956667Y-270238D01*
X966190Y-270238D01*
X999524Y-270238D02*
X999524Y-170238D01*
X1042381Y-270238D02*
X1042381Y-217857D01*
X1037619Y-208333D01*
X1028095Y-203571D01*
X1013809Y-203571D01*
X1004286Y-208333D01*
X999524Y-213095D01*
X1132857Y-203571D02*
X1132857Y-270238D01*
X1090000Y-203571D02*
X1090000Y-255952D01*
X1094762Y-265476D01*
X1104286Y-270238D01*
X1118572Y-270238D01*
X1128095Y-265476D01*
X1132857Y-260714D01*
X1180476Y-270238D02*
X1180476Y-170238D01*
X1180476Y-208333D02*
X1190000Y-203571D01*
X1209048Y-203571D01*
X1218572Y-208333D01*
X1223333Y-213095D01*
X1228095Y-222619D01*
X1228095Y-251190D01*
X1223333Y-260714D01*
X1218572Y-265476D01*
X1209048Y-270238D01*
X1190000Y-270238D01*
X1180476Y-265476D01*
X1270952Y-260714D02*
X1275714Y-265476D01*
X1270952Y-270238D01*
X1266191Y-265476D01*
X1270952Y-260714D01*
X1270952Y-270238D01*
X1361429Y-265476D02*
X1351905Y-270238D01*
X1332857Y-270238D01*
X1323333Y-265476D01*
X1318571Y-260714D01*
X1313810Y-251190D01*
X1313810Y-222619D01*
X1318571Y-213095D01*
X1323333Y-208333D01*
X1332857Y-203571D01*
X1351905Y-203571D01*
X1361429Y-208333D01*
X1418571Y-270238D02*
X1409048Y-265476D01*
X1404286Y-260714D01*
X1399524Y-251190D01*
X1399524Y-222619D01*
X1404286Y-213095D01*
X1409048Y-208333D01*
X1418571Y-203571D01*
X1432857Y-203571D01*
X1442381Y-208333D01*
X1447143Y-213095D01*
X1451905Y-222619D01*
X1451905Y-251190D01*
X1447143Y-260714D01*
X1442381Y-265476D01*
X1432857Y-270238D01*
X1418571Y-270238D01*
X1494762Y-270238D02*
X1494762Y-203571D01*
X1494762Y-213095D02*
X1499524Y-208333D01*
X1509048Y-203571D01*
X1523333Y-203571D01*
X1532857Y-208333D01*
X1537619Y-217857D01*
X1537619Y-270238D01*
X1537619Y-217857D02*
X1542381Y-208333D01*
X1551905Y-203571D01*
X1566190Y-203571D01*
X1575714Y-208333D01*
X1580476Y-217857D01*
X1580476Y-270238D01*
X1699524Y-165476D02*
X1613809Y-294048D01*
X1766190Y-217857D02*
X1732857Y-217857D01*
X1732857Y-270238D02*
X1732857Y-170238D01*
X1780476Y-170238D01*
X1832857Y-270238D02*
X1823333Y-265476D01*
X1818571Y-260714D01*
X1813809Y-251190D01*
X1813809Y-222619D01*
X1818571Y-213095D01*
X1823333Y-208333D01*
X1832857Y-203571D01*
X1847143Y-203571D01*
X1856667Y-208333D01*
X1861429Y-213095D01*
X1866190Y-222619D01*
X1866190Y-251190D01*
X1861429Y-260714D01*
X1856667Y-265476D01*
X1847143Y-270238D01*
X1832857Y-270238D01*
X1899524Y-270238D02*
X1951905Y-203571D01*
X1899524Y-203571D02*
X1951905Y-270238D01*
X1975714Y-170238D02*
X2009048Y-270238D01*
X2042381Y-170238D01*
X2075714Y-270238D02*
X2075714Y-170238D01*
X2132857Y-270238D02*
X2090000Y-213095D01*
X2132857Y-170238D02*
X2075714Y-227381D01*
X2247143Y-165476D02*
X2161429Y-294048D01*
X2280476Y-270238D02*
X2280476Y-170238D01*
X2304286Y-170238D01*
X2318572Y-175000D01*
X2328095Y-184524D01*
X2332857Y-194048D01*
X2337619Y-213095D01*
X2337619Y-227381D01*
X2332857Y-246429D01*
X2328095Y-255952D01*
X2318572Y-265476D01*
X2304286Y-270238D01*
X2280476Y-270238D01*
X2413810Y-217857D02*
X2380476Y-217857D01*
X2380476Y-270238D02*
X2380476Y-170238D01*
X2428095Y-170238D01*
X2466191Y-270238D02*
X2466191Y-170238D01*
X2499524Y-241667D01*
X2532857Y-170238D01*
X2532857Y-270238D01*
X2566191Y-170238D02*
X2623333Y-170238D01*
X2594762Y-270238D02*
X2594762Y-170238D01*
D12*
X1367857Y-1992857D02*
X1317857Y-1921429D01*
X1282143Y-1992857D02*
X1282143Y-1842857D01*
X1339286Y-1842857D01*
X1353572Y-1850000D01*
X1360714Y-1857143D01*
X1367857Y-1871429D01*
X1367857Y-1892857D01*
X1360714Y-1907143D01*
X1353572Y-1914286D01*
X1339286Y-1921429D01*
X1282143Y-1921429D01*
X1425000Y-1985714D02*
X1446429Y-1992857D01*
X1482143Y-1992857D01*
X1496429Y-1985714D01*
X1503571Y-1978571D01*
X1510714Y-1964286D01*
X1510714Y-1950000D01*
X1503571Y-1935714D01*
X1496429Y-1928571D01*
X1482143Y-1921429D01*
X1453571Y-1914286D01*
X1439286Y-1907143D01*
X1432143Y-1900000D01*
X1425000Y-1885714D01*
X1425000Y-1871429D01*
X1432143Y-1857143D01*
X1439286Y-1850000D01*
X1453571Y-1842857D01*
X1489286Y-1842857D01*
X1510714Y-1850000D01*
X1553571Y-1842857D02*
X1639286Y-1842857D01*
X1596429Y-1992857D02*
X1596429Y-1842857D01*
X1260714Y-1742857D02*
X1260714Y-1592857D01*
X1317857Y-1592857D01*
X1332143Y-1600000D01*
X1339286Y-1607143D01*
X1346429Y-1621429D01*
X1346429Y-1642857D01*
X1339286Y-1657143D01*
X1332143Y-1664286D01*
X1317857Y-1671429D01*
X1260714Y-1671429D01*
X1489286Y-1600000D02*
X1475000Y-1592857D01*
X1453571Y-1592857D01*
X1432143Y-1600000D01*
X1417857Y-1614286D01*
X1410714Y-1628571D01*
X1403571Y-1657143D01*
X1403571Y-1678571D01*
X1410714Y-1707143D01*
X1417857Y-1721429D01*
X1432143Y-1735714D01*
X1453571Y-1742857D01*
X1467857Y-1742857D01*
X1489286Y-1735714D01*
X1496429Y-1728571D01*
X1496429Y-1678571D01*
X1467857Y-1678571D01*
X1646429Y-1728571D02*
X1639286Y-1735714D01*
X1617857Y-1742857D01*
X1603571Y-1742857D01*
X1582143Y-1735714D01*
X1567857Y-1721429D01*
X1560714Y-1707143D01*
X1553571Y-1678571D01*
X1553571Y-1657143D01*
X1560714Y-1628571D01*
X1567857Y-1614286D01*
X1582143Y-1600000D01*
X1603571Y-1592857D01*
X1617857Y-1592857D01*
X1639286Y-1600000D01*
X1646429Y-1607143D01*
X1260714Y-1467857D02*
X1260714Y-1317857D01*
X1317857Y-1317857D01*
X1332143Y-1325000D01*
X1339286Y-1332143D01*
X1346429Y-1346429D01*
X1346429Y-1367857D01*
X1339286Y-1382143D01*
X1332143Y-1389286D01*
X1317857Y-1396429D01*
X1260714Y-1396429D01*
X1489286Y-1325000D02*
X1475000Y-1317857D01*
X1453571Y-1317857D01*
X1432143Y-1325000D01*
X1417857Y-1339286D01*
X1410714Y-1353571D01*
X1403571Y-1382143D01*
X1403571Y-1403571D01*
X1410714Y-1432143D01*
X1417857Y-1446429D01*
X1432143Y-1460714D01*
X1453571Y-1467857D01*
X1467857Y-1467857D01*
X1489286Y-1460714D01*
X1496429Y-1453571D01*
X1496429Y-1403571D01*
X1467857Y-1403571D01*
X1560714Y-1467857D02*
X1560714Y-1317857D01*
X1596429Y-1317857D01*
X1617857Y-1325000D01*
X1632143Y-1339286D01*
X1639286Y-1353571D01*
X1646429Y-1382143D01*
X1646429Y-1403571D01*
X1639286Y-1432143D01*
X1632143Y-1446429D01*
X1617857Y-1460714D01*
X1596429Y-1467857D01*
X1560714Y-1467857D01*
X685714Y-1417857D02*
X692857Y-1396429D01*
X692857Y-1360714D01*
X685714Y-1346429D01*
X678571Y-1339286D01*
X664286Y-1332143D01*
X650000Y-1332143D01*
X635714Y-1339286D01*
X628571Y-1346429D01*
X621429Y-1360714D01*
X614286Y-1389286D01*
X607143Y-1403571D01*
X600000Y-1410714D01*
X585714Y-1417857D01*
X571429Y-1417857D01*
X557143Y-1410714D01*
X550000Y-1403571D01*
X542857Y-1389286D01*
X542857Y-1353572D01*
X550000Y-1332143D01*
X542857Y-1282143D02*
X692857Y-1246429D01*
X585714Y-1217857D01*
X692857Y-1189286D01*
X542857Y-1153572D01*
X635714Y-1096429D02*
X635714Y-982143D01*
X692857Y-839286D02*
X692857Y-910714D01*
X542857Y-910714D01*
X542857Y-803571D02*
X692857Y-767857D01*
X585714Y-739286D01*
X692857Y-710714D01*
X542857Y-675000D01*
X2157514Y-4773457D02*
X2157514Y-4623457D01*
X2193229Y-4623457D01*
X2214657Y-4630600D01*
X2228943Y-4644886D01*
X2236086Y-4659171D01*
X2243229Y-4687743D01*
X2243229Y-4709171D01*
X2236086Y-4737743D01*
X2228943Y-4752029D01*
X2214657Y-4766314D01*
X2193229Y-4773457D01*
X2157514Y-4773457D01*
X2357514Y-4694886D02*
X2307514Y-4694886D01*
X2307514Y-4773457D02*
X2307514Y-4623457D01*
X2378943Y-4623457D01*
X2436086Y-4773457D02*
X2436086Y-4623457D01*
X2486086Y-4730600D01*
X2536086Y-4623457D01*
X2536086Y-4773457D01*
X2586086Y-4623457D02*
X2671800Y-4623457D01*
X2628943Y-4773457D02*
X2628943Y-4623457D01*
X2821800Y-4673457D02*
X2857514Y-4773457D01*
X2893229Y-4673457D01*
X3028943Y-4773457D02*
X2943229Y-4773457D01*
X2986086Y-4773457D02*
X2986086Y-4623457D01*
X2971800Y-4644886D01*
X2957514Y-4659171D01*
X2943229Y-4666314D01*
X3093229Y-4759171D02*
X3100371Y-4766314D01*
X3093229Y-4773457D01*
X3086086Y-4766314D01*
X3093229Y-4759171D01*
X3093229Y-4773457D01*
X3193229Y-4623457D02*
X3207514Y-4623457D01*
X3221800Y-4630600D01*
X3228943Y-4637743D01*
X3236086Y-4652029D01*
X3243229Y-4680600D01*
X3243229Y-4716314D01*
X3236086Y-4744886D01*
X3228943Y-4759171D01*
X3221800Y-4766314D01*
X3207514Y-4773457D01*
X3193229Y-4773457D01*
X3178943Y-4766314D01*
X3171800Y-4759171D01*
X3164657Y-4744886D01*
X3157514Y-4716314D01*
X3157514Y-4680600D01*
X3164657Y-4652029D01*
X3171800Y-4637743D01*
X3178943Y-4630600D01*
X3193229Y-4623457D01*
D13*
X155900Y-4250000D02*
X155900Y-4450000D01*
X360900Y-4450000D02*
X360900Y-4250000D01*
X717740Y-3054800D02*
X717740Y-2854800D01*
X512740Y-2854800D02*
X512740Y-3054800D01*
X310100Y-3053000D02*
X310100Y-2853000D01*
X105100Y-2853000D02*
X105100Y-3053000D01*
X1681700Y-4297600D02*
X1681700Y-4097600D01*
X1476700Y-4097600D02*
X1476700Y-4297600D01*
X996600Y-4528700D02*
X1196600Y-4528700D01*
X1196600Y-4323700D02*
X996600Y-4323700D01*
X1832300Y-2827600D02*
X1832300Y-3027600D01*
X2037300Y-3027600D02*
X2037300Y-2827600D01*
X3979884Y-1510008D02*
X3979884Y-1889992D01*
X4649936Y-1510008D02*
X4150064Y-1510008D01*
X4649682Y-1889992D02*
X4149810Y-1889992D01*
X3929592Y-1409678D02*
X3929592Y-1519660D01*
X3869648Y-1459716D02*
X3989536Y-1459716D01*
X4500000Y-1197500D02*
X4300000Y-1197500D01*
X4300000Y-1402500D02*
X4500000Y-1402500D01*
X1362740Y-3647300D02*
X1306990Y-3647300D01*
X1362740Y-4062300D02*
X1306990Y-4062300D01*
X467740Y-4062300D02*
X523490Y-4062300D01*
X467740Y-3647300D02*
X523490Y-3647300D01*
X1362740Y-3647300D02*
X1362740Y-4062300D01*
X467740Y-3647300D02*
X467740Y-4062300D01*
X1306990Y-3647300D02*
X1306990Y-3534800D01*
X2313500Y-670500D02*
X2313500Y-797500D01*
X3048500Y-670500D02*
X3048500Y-797500D01*
X3048500Y-4431500D02*
X3048500Y-4304500D01*
X2313500Y-4431500D02*
X2313500Y-4304500D01*
X2313500Y-670500D02*
X3048500Y-670500D01*
X2313500Y-4431500D02*
X3048500Y-4431500D01*
X2313500Y-797500D02*
X2220000Y-797500D01*
X131400Y-3689600D02*
X131400Y-3435600D01*
X103400Y-3971600D02*
X103400Y-3816600D01*
X131400Y-3689600D02*
X385400Y-3689600D01*
X413400Y-3816600D02*
X413400Y-3971600D01*
X413400Y-3971600D02*
X103400Y-3971600D01*
X385400Y-3689600D02*
X385400Y-3435600D01*
X385400Y-3435600D02*
X131400Y-3435600D01*
X410800Y-1048000D02*
X410800Y-1302000D01*
X438800Y-766000D02*
X438800Y-921000D01*
X410800Y-1048000D02*
X156800Y-1048000D01*
X128800Y-921000D02*
X128800Y-766000D01*
X128800Y-766000D02*
X438800Y-766000D01*
X156800Y-1048000D02*
X156800Y-1302000D01*
X156800Y-1302000D02*
X410800Y-1302000D01*
X2011000Y-1784600D02*
X2011000Y-1276600D01*
X2011000Y-1276600D02*
X1757000Y-1276600D01*
X1757000Y-1276600D02*
X1757000Y-1784600D01*
X1729000Y-2066600D02*
X1729000Y-1911600D01*
X1757000Y-1784600D02*
X2011000Y-1784600D01*
X2039000Y-1911600D02*
X2039000Y-2066600D01*
X2039000Y-2066600D02*
X1729000Y-2066600D01*
X1776500Y-3916600D02*
X1776500Y-3716600D01*
X1991500Y-3716600D02*
X1991500Y-3916600D01*
X1322740Y-2854800D02*
X1322740Y-3054800D01*
X1107740Y-3054800D02*
X1107740Y-2854800D01*
X1022740Y-2854800D02*
X1022740Y-3054800D01*
X807740Y-3054800D02*
X807740Y-2854800D01*
X4600000Y-725000D02*
X4600000Y-475000D01*
X4600000Y-475000D02*
X4550000Y-475000D01*
X4550000Y-475000D02*
X4550000Y-450000D01*
X4600000Y-725000D02*
X4550000Y-725000D01*
X4550000Y-725000D02*
X4550000Y-900000D01*
X4550000Y-900000D02*
X4050000Y-900000D01*
X4050000Y-900000D02*
X4050000Y-725000D01*
X4050000Y-725000D02*
X4000000Y-725000D01*
X4000000Y-725000D02*
X4000000Y-475000D01*
X4000000Y-475000D02*
X4050000Y-475000D01*
X4050000Y-475000D02*
X4050000Y-300000D01*
X4050000Y-300000D02*
X4550000Y-300000D01*
X4550000Y-300000D02*
X4550000Y-450000D01*
X4475000Y-600000D02*
G75*
G03X4475000Y-600000I-175000J0D01*
G01*
X4597000Y-4525800D02*
X4597000Y-4275800D01*
X4597000Y-4275800D02*
X4547000Y-4275800D01*
X4547000Y-4275800D02*
X4547000Y-4250800D01*
X4597000Y-4525800D02*
X4547000Y-4525800D01*
X4547000Y-4525800D02*
X4547000Y-4700800D01*
X4547000Y-4700800D02*
X4047000Y-4700800D01*
X4047000Y-4700800D02*
X4047000Y-4525800D01*
X4047000Y-4525800D02*
X3997000Y-4525800D01*
X3997000Y-4525800D02*
X3997000Y-4275800D01*
X3997000Y-4275800D02*
X4047000Y-4275800D01*
X4047000Y-4275800D02*
X4047000Y-4100800D01*
X4047000Y-4100800D02*
X4547000Y-4100800D01*
X4547000Y-4100800D02*
X4547000Y-4250800D01*
X4472000Y-4400800D02*
G75*
G03X4472000Y-4400800I-175000J0D01*
G01*
X3957200Y-2149800D02*
X4967200Y-2149800D01*
X3955200Y-2749800D02*
X3955200Y-2149800D01*
X4927200Y-3349800D02*
X3955200Y-3349800D01*
X3955200Y-3349800D02*
X3955200Y-2749800D01*
X241733Y-4817514D02*
X236971Y-4822276D01*
X222686Y-4827038D01*
X213162Y-4827038D01*
X198876Y-4822276D01*
X189352Y-4812752D01*
X184590Y-4803229D01*
X179829Y-4784181D01*
X179829Y-4769895D01*
X184590Y-4750848D01*
X189352Y-4741324D01*
X198876Y-4731800D01*
X213162Y-4727038D01*
X222686Y-4727038D01*
X236971Y-4731800D01*
X241733Y-4736562D01*
X336972Y-4827038D02*
X279829Y-4827038D01*
X308400Y-4827038D02*
X308400Y-4727038D01*
X298876Y-4741324D01*
X289352Y-4750848D01*
X279829Y-4755610D01*
X660714Y-2491667D02*
X665476Y-2496429D01*
X670238Y-2510714D01*
X670238Y-2520238D01*
X665476Y-2534524D01*
X655952Y-2544048D01*
X646429Y-2548810D01*
X627381Y-2553571D01*
X613095Y-2553571D01*
X594048Y-2548810D01*
X584524Y-2544048D01*
X575000Y-2534524D01*
X570238Y-2520238D01*
X570238Y-2510714D01*
X575000Y-2496429D01*
X579762Y-2491667D01*
X579762Y-2453571D02*
X575000Y-2448810D01*
X570238Y-2439286D01*
X570238Y-2415476D01*
X575000Y-2405952D01*
X579762Y-2401190D01*
X589286Y-2396429D01*
X598810Y-2396429D01*
X613095Y-2401190D01*
X670238Y-2458333D01*
X670238Y-2396429D01*
X235714Y-2491667D02*
X240476Y-2496429D01*
X245238Y-2510714D01*
X245238Y-2520238D01*
X240476Y-2534524D01*
X230952Y-2544048D01*
X221429Y-2548810D01*
X202381Y-2553571D01*
X188095Y-2553571D01*
X169048Y-2548810D01*
X159524Y-2544048D01*
X150000Y-2534524D01*
X145238Y-2520238D01*
X145238Y-2510714D01*
X150000Y-2496429D01*
X154762Y-2491667D01*
X145238Y-2458333D02*
X145238Y-2396429D01*
X183333Y-2429762D01*
X183333Y-2415476D01*
X188095Y-2405952D01*
X192857Y-2401190D01*
X202381Y-2396429D01*
X226190Y-2396429D01*
X235714Y-2401190D01*
X240476Y-2405952D01*
X245238Y-2415476D01*
X245238Y-2444048D01*
X240476Y-2453571D01*
X235714Y-2458333D01*
X1562533Y-4665114D02*
X1557771Y-4669876D01*
X1543486Y-4674638D01*
X1533962Y-4674638D01*
X1519676Y-4669876D01*
X1510152Y-4660352D01*
X1505390Y-4650829D01*
X1500629Y-4631781D01*
X1500629Y-4617495D01*
X1505390Y-4598448D01*
X1510152Y-4588924D01*
X1519676Y-4579400D01*
X1533962Y-4574638D01*
X1543486Y-4574638D01*
X1557771Y-4579400D01*
X1562533Y-4584162D01*
X1648248Y-4574638D02*
X1629200Y-4574638D01*
X1619676Y-4579400D01*
X1614914Y-4584162D01*
X1605390Y-4598448D01*
X1600629Y-4617495D01*
X1600629Y-4655591D01*
X1605390Y-4665114D01*
X1610152Y-4669876D01*
X1619676Y-4674638D01*
X1638724Y-4674638D01*
X1648248Y-4669876D01*
X1653010Y-4665114D01*
X1657771Y-4655591D01*
X1657771Y-4631781D01*
X1653010Y-4622257D01*
X1648248Y-4617495D01*
X1638724Y-4612733D01*
X1619676Y-4612733D01*
X1610152Y-4617495D01*
X1605390Y-4622257D01*
X1600629Y-4631781D01*
X1233333Y-4660714D02*
X1228572Y-4665476D01*
X1214286Y-4670238D01*
X1204762Y-4670238D01*
X1190476Y-4665476D01*
X1180952Y-4655952D01*
X1176191Y-4646429D01*
X1171429Y-4627381D01*
X1171429Y-4613095D01*
X1176191Y-4594048D01*
X1180952Y-4584524D01*
X1190476Y-4575000D01*
X1204762Y-4570238D01*
X1214286Y-4570238D01*
X1228572Y-4575000D01*
X1233333Y-4579762D01*
X1266667Y-4570238D02*
X1333333Y-4570238D01*
X1290476Y-4670238D01*
X1760714Y-3164286D02*
X1765476Y-3169048D01*
X1770238Y-3183333D01*
X1770238Y-3192857D01*
X1765476Y-3207143D01*
X1755952Y-3216667D01*
X1746429Y-3221429D01*
X1727381Y-3226190D01*
X1713095Y-3226190D01*
X1694048Y-3221429D01*
X1684524Y-3216667D01*
X1675000Y-3207143D01*
X1670238Y-3192857D01*
X1670238Y-3183333D01*
X1675000Y-3169048D01*
X1679762Y-3164286D01*
X1770238Y-3069048D02*
X1770238Y-3126190D01*
X1770238Y-3097619D02*
X1670238Y-3097619D01*
X1684524Y-3107143D01*
X1694048Y-3116667D01*
X1698809Y-3126190D01*
X1770238Y-2973809D02*
X1770238Y-3030952D01*
X1770238Y-3002381D02*
X1670238Y-3002381D01*
X1684524Y-3011905D01*
X1694048Y-3021429D01*
X1698809Y-3030952D01*
X3699314Y-1744114D02*
X3694552Y-1748876D01*
X3680267Y-1753638D01*
X3670743Y-1753638D01*
X3656457Y-1748876D01*
X3646933Y-1739352D01*
X3642171Y-1729829D01*
X3637409Y-1710781D01*
X3637409Y-1696495D01*
X3642171Y-1677448D01*
X3646933Y-1667924D01*
X3656457Y-1658400D01*
X3670743Y-1653638D01*
X3680267Y-1653638D01*
X3694552Y-1658400D01*
X3699314Y-1663162D01*
X3794552Y-1753638D02*
X3737409Y-1753638D01*
X3765981Y-1753638D02*
X3765981Y-1653638D01*
X3756457Y-1667924D01*
X3746933Y-1677448D01*
X3737409Y-1682209D01*
X3880267Y-1686971D02*
X3880267Y-1753638D01*
X3856457Y-1648876D02*
X3832648Y-1720305D01*
X3894552Y-1720305D01*
X3891751Y-1467113D02*
X3967941Y-1467113D01*
X3929846Y-1505208D02*
X3929846Y-1429018D01*
X3800914Y-1312314D02*
X3796152Y-1317076D01*
X3781867Y-1321838D01*
X3772343Y-1321838D01*
X3758057Y-1317076D01*
X3748533Y-1307552D01*
X3743771Y-1298029D01*
X3739009Y-1278981D01*
X3739009Y-1264695D01*
X3743771Y-1245648D01*
X3748533Y-1236124D01*
X3758057Y-1226600D01*
X3772343Y-1221838D01*
X3781867Y-1221838D01*
X3796152Y-1226600D01*
X3800914Y-1231362D01*
X3896152Y-1321838D02*
X3839009Y-1321838D01*
X3867581Y-1321838D02*
X3867581Y-1221838D01*
X3858057Y-1236124D01*
X3848533Y-1245648D01*
X3839009Y-1250410D01*
X3986629Y-1221838D02*
X3939009Y-1221838D01*
X3934248Y-1269457D01*
X3939009Y-1264695D01*
X3948533Y-1259933D01*
X3972343Y-1259933D01*
X3981867Y-1264695D01*
X3986629Y-1269457D01*
X3991390Y-1278981D01*
X3991390Y-1302791D01*
X3986629Y-1312314D01*
X3981867Y-1317076D01*
X3972343Y-1321838D01*
X3948533Y-1321838D01*
X3939009Y-1317076D01*
X3934248Y-1312314D01*
X1520238Y-3797619D02*
X1420238Y-3797619D01*
X1510714Y-3692857D02*
X1515476Y-3697619D01*
X1520238Y-3711905D01*
X1520238Y-3721428D01*
X1515476Y-3735714D01*
X1505952Y-3745238D01*
X1496429Y-3750000D01*
X1477381Y-3754762D01*
X1463095Y-3754762D01*
X1444048Y-3750000D01*
X1434524Y-3745238D01*
X1425000Y-3735714D01*
X1420238Y-3721428D01*
X1420238Y-3711905D01*
X1425000Y-3697619D01*
X1429762Y-3692857D01*
X1520238Y-3597619D02*
X1520238Y-3654762D01*
X1520238Y-3626190D02*
X1420238Y-3626190D01*
X1434524Y-3635714D01*
X1444048Y-3645238D01*
X1448809Y-3654762D01*
X2488067Y-559838D02*
X2488067Y-459838D01*
X2521400Y-531267D01*
X2554733Y-459838D01*
X2554733Y-559838D01*
X2659495Y-550314D02*
X2654733Y-555076D01*
X2640448Y-559838D01*
X2630924Y-559838D01*
X2616638Y-555076D01*
X2607114Y-545552D01*
X2602352Y-536029D01*
X2597591Y-516981D01*
X2597591Y-502695D01*
X2602352Y-483648D01*
X2607114Y-474124D01*
X2616638Y-464600D01*
X2630924Y-459838D01*
X2640448Y-459838D01*
X2654733Y-464600D01*
X2659495Y-469362D01*
X2702352Y-459838D02*
X2702352Y-540791D01*
X2707114Y-550314D01*
X2711876Y-555076D01*
X2721400Y-559838D01*
X2740448Y-559838D01*
X2749972Y-555076D01*
X2754733Y-550314D01*
X2759495Y-540791D01*
X2759495Y-459838D01*
X2859495Y-559838D02*
X2802352Y-559838D01*
X2830924Y-559838D02*
X2830924Y-459838D01*
X2821400Y-474124D01*
X2811876Y-483648D01*
X2802352Y-488409D01*
X351190Y-3370238D02*
X351190Y-3270238D01*
X389286Y-3270238D01*
X398810Y-3275000D01*
X403571Y-3279762D01*
X408333Y-3289286D01*
X408333Y-3303571D01*
X403571Y-3313095D01*
X398810Y-3317857D01*
X389286Y-3322619D01*
X351190Y-3322619D01*
X503571Y-3370238D02*
X446429Y-3370238D01*
X475000Y-3370238D02*
X475000Y-3270238D01*
X465476Y-3284524D01*
X455952Y-3294048D01*
X446429Y-3298809D01*
X209990Y-686838D02*
X209990Y-586838D01*
X248086Y-586838D01*
X257610Y-591600D01*
X262372Y-596362D01*
X267133Y-605886D01*
X267133Y-620171D01*
X262372Y-629695D01*
X257610Y-634457D01*
X248086Y-639219D01*
X209990Y-639219D01*
X305229Y-596362D02*
X309991Y-591600D01*
X319514Y-586838D01*
X343324Y-586838D01*
X352848Y-591600D01*
X357610Y-596362D01*
X362371Y-605886D01*
X362371Y-615410D01*
X357610Y-629695D01*
X300467Y-686838D01*
X362371Y-686838D01*
X1810190Y-2236238D02*
X1810190Y-2136238D01*
X1848286Y-2136238D01*
X1857810Y-2141000D01*
X1862571Y-2145762D01*
X1867333Y-2155286D01*
X1867333Y-2169571D01*
X1862571Y-2179095D01*
X1857810Y-2183857D01*
X1848286Y-2188619D01*
X1810190Y-2188619D01*
X1900667Y-2136238D02*
X1962571Y-2136238D01*
X1929238Y-2174333D01*
X1943524Y-2174333D01*
X1953048Y-2179095D01*
X1957810Y-2183857D01*
X1962571Y-2193381D01*
X1962571Y-2217191D01*
X1957810Y-2226714D01*
X1953048Y-2231476D01*
X1943524Y-2236238D01*
X1914952Y-2236238D01*
X1905429Y-2231476D01*
X1900667Y-2226714D01*
X1867333Y-4293638D02*
X1834000Y-4246019D01*
X1810190Y-4293638D02*
X1810190Y-4193638D01*
X1848286Y-4193638D01*
X1857810Y-4198400D01*
X1862571Y-4203162D01*
X1867333Y-4212686D01*
X1867333Y-4226971D01*
X1862571Y-4236495D01*
X1857810Y-4241257D01*
X1848286Y-4246019D01*
X1810190Y-4246019D01*
X1962571Y-4293638D02*
X1905429Y-4293638D01*
X1934000Y-4293638D02*
X1934000Y-4193638D01*
X1924476Y-4207924D01*
X1914952Y-4217448D01*
X1905429Y-4222210D01*
X1270238Y-2466667D02*
X1222619Y-2500000D01*
X1270238Y-2523810D02*
X1170238Y-2523810D01*
X1170238Y-2485714D01*
X1175000Y-2476190D01*
X1179762Y-2471429D01*
X1189286Y-2466667D01*
X1203571Y-2466667D01*
X1213095Y-2471429D01*
X1217857Y-2476190D01*
X1222619Y-2485714D01*
X1222619Y-2523810D01*
X1179762Y-2428571D02*
X1175000Y-2423810D01*
X1170238Y-2414286D01*
X1170238Y-2390476D01*
X1175000Y-2380952D01*
X1179762Y-2376190D01*
X1189286Y-2371429D01*
X1198810Y-2371429D01*
X1213095Y-2376190D01*
X1270238Y-2433333D01*
X1270238Y-2371429D01*
X970238Y-2466667D02*
X922619Y-2500000D01*
X970238Y-2523810D02*
X870238Y-2523810D01*
X870238Y-2485714D01*
X875000Y-2476190D01*
X879762Y-2471429D01*
X889286Y-2466667D01*
X903571Y-2466667D01*
X913095Y-2471429D01*
X917857Y-2476190D01*
X922619Y-2485714D01*
X922619Y-2523810D01*
X870238Y-2433333D02*
X870238Y-2371429D01*
X908333Y-2404762D01*
X908333Y-2390476D01*
X913095Y-2380952D01*
X917857Y-2376190D01*
X927381Y-2371429D01*
X951190Y-2371429D01*
X960714Y-2376190D01*
X965476Y-2380952D01*
X970238Y-2390476D01*
X970238Y-2419048D01*
X965476Y-2428571D01*
X960714Y-2433333D01*
X3604867Y-631276D02*
X3619152Y-636038D01*
X3642962Y-636038D01*
X3652486Y-631276D01*
X3657248Y-626514D01*
X3662010Y-616991D01*
X3662010Y-607467D01*
X3657248Y-597943D01*
X3652486Y-593181D01*
X3642962Y-588419D01*
X3623914Y-583657D01*
X3614390Y-578895D01*
X3609629Y-574133D01*
X3604867Y-564610D01*
X3604867Y-555086D01*
X3609629Y-545562D01*
X3614390Y-540800D01*
X3623914Y-536038D01*
X3647724Y-536038D01*
X3662010Y-540800D01*
X3695343Y-536038D02*
X3719152Y-636038D01*
X3738200Y-564610D01*
X3757248Y-636038D01*
X3781057Y-536038D01*
X3871533Y-636038D02*
X3814390Y-636038D01*
X3842962Y-636038D02*
X3842962Y-536038D01*
X3833438Y-550324D01*
X3823914Y-559848D01*
X3814390Y-564610D01*
X3641667Y-4440476D02*
X3655952Y-4445238D01*
X3679762Y-4445238D01*
X3689286Y-4440476D01*
X3694048Y-4435714D01*
X3698810Y-4426191D01*
X3698810Y-4416667D01*
X3694048Y-4407143D01*
X3689286Y-4402381D01*
X3679762Y-4397619D01*
X3660714Y-4392857D01*
X3651190Y-4388095D01*
X3646429Y-4383333D01*
X3641667Y-4373810D01*
X3641667Y-4364286D01*
X3646429Y-4354762D01*
X3651190Y-4350000D01*
X3660714Y-4345238D01*
X3684524Y-4345238D01*
X3698810Y-4350000D01*
X3732143Y-4345238D02*
X3755952Y-4445238D01*
X3775000Y-4373810D01*
X3794048Y-4445238D01*
X3817857Y-4345238D01*
X3851190Y-4354762D02*
X3855952Y-4350000D01*
X3865476Y-4345238D01*
X3889286Y-4345238D01*
X3898810Y-4350000D01*
X3903571Y-4354762D01*
X3908333Y-4364286D01*
X3908333Y-4373810D01*
X3903571Y-4388095D01*
X3846429Y-4445238D01*
X3908333Y-4445238D01*
X3855238Y-2828809D02*
X3755238Y-2828809D01*
X3755238Y-2790714D01*
X3760000Y-2781190D01*
X3764762Y-2776429D01*
X3774286Y-2771667D01*
X3788571Y-2771667D01*
X3798095Y-2776429D01*
X3802857Y-2781190D01*
X3807619Y-2790714D01*
X3807619Y-2828809D01*
X3788571Y-2685952D02*
X3855238Y-2685952D01*
X3750476Y-2709762D02*
X3821905Y-2733571D01*
X3821905Y-2671667D01*
M02*
