M48
METRIC,TZ
T1C0.500
T2C0.800
T3C1.000
T4C1.016
T5C2.300
T6C3.200
%
G90
G05
T1
X75076Y-191962
X77108Y-191962
X79152Y-191798
X80500Y-192250
X81172Y-205424
X81426Y-177738
X81426Y-191454
X81934Y-204154
X82950Y-176976
X83000Y-209400
X83204Y-191708
X83458Y-205170
X85152Y-191798
X88030Y-191708
X97936Y-179262
X99460Y-182818
X110001Y-179008
X111017Y-177230
T2
X96000Y-175750
X96000Y-178290
X96000Y-180830
X96000Y-183370
X96000Y-185910
X96000Y-188450
X96000Y-190990
X96000Y-193530
X96000Y-196070
X96000Y-198610
X96000Y-201150
X96000Y-203690
X96000Y-206230
X96000Y-208770
X103620Y-175750
X103620Y-178290
X103620Y-180830
X103620Y-183370
X103620Y-185910
X103620Y-188450
X103620Y-190990
X103620Y-193530
X103620Y-196070
X103620Y-198610
X103620Y-201150
X103620Y-203690
X103620Y-206230
X103620Y-208770
X112220Y-208508
X112220Y-213008
X112250Y-170500
X112250Y-175000
X119720Y-208508
X119720Y-213008
X119750Y-170500
X119750Y-175000
T3
X114562Y-192998
X114562Y-195498
X116562Y-192998
X116562Y-195498
T4
X75584Y-202376
X75584Y-204916
X75838Y-175960
X75838Y-178500
X91840Y-180786
X91840Y-183326
X91840Y-185866
T5
X119272Y-188228
X119272Y-200268
T6
X91078Y-173928
X110500Y-204250
T0
M30
