G04 #@! TF.FileFunction,Copper,L2,Bot,Signal*
%FSLAX45Y45*%
G04 Gerber Fmt 4.5, Leading zero omitted, Abs format (unit mm)*
G04 Created by KiCad (PCBNEW (2015-10-12 BZR 6264)-product) date Wed 14 Oct 2015 19:18:34 CEST*
%MOMM*%
G01*
G04 APERTURE LIST*
%ADD10C,0.100000*%
%ADD11R,1.600000X2.000000*%
%ADD12R,2.000000X1.600000*%
%ADD13R,3.149600X1.800860*%
%ADD14R,1.800860X3.149600*%
%ADD15R,0.400000X1.200000*%
%ADD16O,0.609600X1.473200*%
%ADD17R,2.500000X2.000000*%
%ADD18O,1.600000X1.600000*%
%ADD19R,2.032000X2.032000*%
%ADD20O,2.032000X2.032000*%
%ADD21R,2.032000X1.727200*%
%ADD22O,2.032000X1.727200*%
%ADD23R,1.700000X2.000000*%
%ADD24R,2.000000X1.700000*%
%ADD25O,2.000000X1.524000*%
%ADD26R,5.600700X2.100580*%
%ADD27C,5.999480*%
%ADD28C,3.500000*%
%ADD29C,1.524000*%
%ADD30C,0.900000*%
%ADD31C,0.700000*%
%ADD32C,0.800000*%
%ADD33C,0.300000*%
%ADD34C,0.254000*%
G04 APERTURE END LIST*
D10*
D11*
X615240Y-2254800D03*
X615240Y-1854800D03*
X207600Y-2264000D03*
X207600Y-1864000D03*
D12*
X1347400Y-463800D03*
X947400Y-463800D03*
X636200Y-463800D03*
X236200Y-463800D03*
X1607800Y-2724400D03*
X2007800Y-2724400D03*
D11*
X2633300Y-3927700D03*
X2633300Y-3527700D03*
D13*
X4128598Y-2267200D03*
X3703402Y-2267200D03*
D11*
X3357200Y-771800D03*
X3357200Y-1171800D03*
D14*
X3509600Y-3216398D03*
X3509600Y-2791202D03*
D15*
X1314490Y-1364800D03*
X1250990Y-1364800D03*
X1187490Y-1364800D03*
X1123990Y-1364800D03*
X1060490Y-1364800D03*
X996990Y-1364800D03*
X933490Y-1364800D03*
X869990Y-1364800D03*
X806490Y-1364800D03*
X742990Y-1364800D03*
X679490Y-1364800D03*
X615990Y-1364800D03*
X615990Y-844800D03*
X679490Y-844800D03*
X742990Y-844800D03*
X806490Y-844800D03*
X869990Y-844800D03*
X933490Y-844800D03*
X996990Y-844800D03*
X1060490Y-844800D03*
X1123990Y-844800D03*
X1187490Y-844800D03*
X1250990Y-844800D03*
X1314490Y-844800D03*
D16*
X4209500Y-1220600D03*
X4336500Y-1220600D03*
X4463500Y-1220600D03*
X4590500Y-1220600D03*
X4590500Y-1779400D03*
X4463500Y-1779400D03*
X4336500Y-1779400D03*
X4209500Y-1779400D03*
D17*
X3700000Y-1900000D03*
X3700000Y-1500000D03*
D18*
X2300000Y-900000D03*
X2300000Y-1154000D03*
X2300000Y-1408000D03*
X2300000Y-1662000D03*
X2300000Y-1916000D03*
X2300000Y-2170000D03*
X2300000Y-2424000D03*
X2300000Y-2678000D03*
X2300000Y-2932000D03*
X2300000Y-3186000D03*
X2300000Y-3440000D03*
X2300000Y-3694000D03*
X2300000Y-3948000D03*
X2300000Y-4202000D03*
X3062000Y-4202000D03*
X3062000Y-3948000D03*
X3062000Y-3694000D03*
X3062000Y-3440000D03*
X3062000Y-3186000D03*
X3062000Y-2932000D03*
X3062000Y-2678000D03*
X3062000Y-2424000D03*
X3062000Y-2170000D03*
X3062000Y-1916000D03*
X3062000Y-1662000D03*
X3062000Y-1408000D03*
X3062000Y-1154000D03*
X3062000Y-900000D03*
D19*
X258400Y-3816600D03*
D20*
X258400Y-3562600D03*
D19*
X283800Y-921000D03*
D20*
X283800Y-1175000D03*
D21*
X1884000Y-1911600D03*
D22*
X1884000Y-1657600D03*
X1884000Y-1403600D03*
D23*
X1515240Y-1854800D03*
X1515240Y-2254800D03*
X1215240Y-1854800D03*
X1215240Y-2254800D03*
X915240Y-1854800D03*
X915240Y-2254800D03*
X2671400Y-543200D03*
X2671400Y-943200D03*
D24*
X1525200Y-3588000D03*
X1125200Y-3588000D03*
X1906200Y-4172200D03*
X1506200Y-4172200D03*
D25*
X3925000Y-375000D03*
X3925000Y-825000D03*
X4675000Y-825000D03*
X4675000Y-375000D03*
X3922000Y-4175800D03*
X3922000Y-4625800D03*
X4672000Y-4625800D03*
X4672000Y-4175800D03*
D26*
X875874Y-3181600D03*
X1845646Y-3181600D03*
D27*
X3750000Y-3750000D03*
X1807800Y-717800D03*
D28*
X4627200Y-2147800D03*
D29*
X4356200Y-2624800D03*
X4156200Y-2624800D03*
X4156200Y-2874800D03*
X4356200Y-2874800D03*
D28*
X4627200Y-3351800D03*
D30*
X410800Y-2521200D03*
X615240Y-2504800D03*
X207600Y-2521200D03*
X3801700Y-1048000D03*
X1045800Y-3842000D03*
X3700100Y-1225800D03*
X842600Y-1098800D03*
D31*
X750000Y-2550000D03*
D30*
X817200Y-3867400D03*
X995000Y-1022600D03*
X842600Y-2470400D03*
X893400Y-3740400D03*
X1000000Y-4265000D03*
X2646000Y-1606800D03*
X1215240Y-2504800D03*
X1503000Y-2495800D03*
X2493600Y-1251200D03*
X1020400Y-2495800D03*
D32*
X4627200Y-3351800D02*
X4213200Y-3351800D01*
X4077798Y-3216398D02*
X3509600Y-3216398D01*
X4213200Y-3351800D02*
X4077798Y-3216398D01*
X3062000Y-3186000D02*
X3479202Y-3186000D01*
X3479202Y-3186000D02*
X3509600Y-3216398D01*
X4128598Y-2267200D02*
X4398600Y-2267200D01*
X4398600Y-2267200D02*
X4453200Y-2321800D01*
D33*
X679490Y-1364800D02*
X679490Y-1515910D01*
D32*
X410800Y-1683000D02*
X410800Y-2521200D01*
X487000Y-1606800D02*
X410800Y-1683000D01*
D33*
X588600Y-1606800D02*
X487000Y-1606800D01*
X679490Y-1515910D02*
X588600Y-1606800D01*
X283800Y-921000D02*
X283800Y-717800D01*
X236200Y-670200D02*
X236200Y-463800D01*
X283800Y-717800D02*
X236200Y-670200D01*
X4463500Y-1220600D02*
X4462100Y-1219200D01*
X4336500Y-1220600D02*
X4463500Y-1220600D01*
X4463500Y-1220600D02*
X4463500Y-1779400D01*
X4336500Y-1779400D02*
X4463500Y-1779400D01*
X4463500Y-1779400D02*
X4590500Y-1779400D01*
X3079800Y-1171800D02*
X3062000Y-1154000D01*
X3339400Y-1154000D02*
X3357200Y-1171800D01*
X3339400Y-1154000D02*
X3357200Y-1171800D01*
D32*
X2637700Y-3186000D02*
X2633300Y-3190400D01*
X2633300Y-3190400D02*
X2633300Y-3527700D01*
X3062000Y-3186000D02*
X2637700Y-3186000D01*
X3339400Y-1154000D02*
X3357200Y-1171800D01*
X3062000Y-1154000D02*
X3339400Y-1154000D01*
X3512800Y-1171800D02*
X3357200Y-1171800D01*
X3859600Y-825000D02*
X3512800Y-1171800D01*
X3925000Y-825000D02*
X3859600Y-825000D01*
X4335100Y-825000D02*
X4675000Y-825000D01*
X3925000Y-825000D02*
X4335100Y-825000D01*
D33*
X4335100Y-1060700D02*
X4336500Y-1062100D01*
X4336500Y-1062100D02*
X4336500Y-1220600D01*
D32*
X4335100Y-825000D02*
X4335100Y-1060700D01*
X2637700Y-2754200D02*
X2637700Y-3186000D01*
X2561500Y-2678000D02*
X2637700Y-2754200D01*
X2300000Y-2678000D02*
X2561500Y-2678000D01*
D33*
X2295600Y-2673600D02*
X2300000Y-2678000D01*
X2054200Y-2678000D02*
X2007800Y-2724400D01*
X2300000Y-2678000D02*
X2054200Y-2678000D01*
X436200Y-921000D02*
X512400Y-844800D01*
X512400Y-844800D02*
X615990Y-844800D01*
X283800Y-921000D02*
X436200Y-921000D01*
X679490Y-844800D02*
X679490Y-1364800D01*
X615990Y-844800D02*
X679490Y-844800D01*
X742990Y-1364800D02*
X806490Y-1364800D01*
X679490Y-1364800D02*
X742990Y-1364800D01*
X4672000Y-4625800D02*
X3922000Y-4625800D01*
D32*
X4356200Y-2418800D02*
X4453200Y-2321800D01*
X4453200Y-2321800D02*
X4627200Y-2147800D01*
X4356200Y-2624800D02*
X4356200Y-2418800D01*
X4627200Y-2895800D02*
X4356200Y-2624800D01*
X4627200Y-3351800D02*
X4627200Y-2895800D01*
X4627200Y-2147800D02*
X4627200Y-2140200D01*
D33*
X4590500Y-1925700D02*
X4627200Y-1962400D01*
X4627200Y-1962400D02*
X4627200Y-2147800D01*
X4590500Y-1779400D02*
X4590500Y-1925700D01*
X258400Y-3562600D02*
X258400Y-2826000D01*
X615240Y-2504800D02*
X615240Y-2504800D01*
X258400Y-2826000D02*
X615240Y-2504800D01*
X615240Y-2254800D02*
X615240Y-2504800D01*
X207600Y-2264000D02*
X207600Y-2521200D01*
X615240Y-1687100D02*
X691640Y-1610700D01*
X691640Y-1610700D02*
X780540Y-1610700D01*
X780540Y-1610700D02*
X869990Y-1521250D01*
X869990Y-1521250D02*
X869990Y-1364800D01*
X615240Y-1854800D02*
X615240Y-1687100D01*
X615990Y-1364800D02*
X615990Y-1477810D01*
X207600Y-1683000D02*
X207600Y-1864000D01*
X385400Y-1505200D02*
X207600Y-1683000D01*
X588600Y-1505200D02*
X385400Y-1505200D01*
X615990Y-1477810D02*
X588600Y-1505200D01*
D32*
X947400Y-463800D02*
X947400Y-282800D01*
X2496800Y-543200D02*
X2671400Y-543200D01*
X2163400Y-209800D02*
X2496800Y-543200D01*
X1020400Y-209800D02*
X2163400Y-209800D01*
X947400Y-282800D02*
X1020400Y-209800D01*
X2671400Y-543200D02*
X2954000Y-543200D01*
X2954000Y-543200D02*
X3186400Y-775600D01*
D33*
X1525200Y-3588000D02*
X1525200Y-3948000D01*
X1528400Y-3943600D02*
X1528400Y-3948000D01*
X1528400Y-3944800D02*
X1528400Y-3943600D01*
X1525200Y-3948000D02*
X1528400Y-3944800D01*
X1906200Y-4172200D02*
X1906200Y-3948000D01*
X1909400Y-3943600D02*
X1909400Y-3948000D01*
X1909400Y-3944800D02*
X1909400Y-3943600D01*
X1906200Y-3948000D02*
X1909400Y-3944800D01*
X947400Y-463800D02*
X947400Y-616200D01*
X947400Y-616200D02*
X944200Y-616200D01*
X806490Y-844800D02*
X806490Y-703110D01*
X806490Y-703110D02*
X893400Y-616200D01*
X893400Y-616200D02*
X944200Y-616200D01*
X944200Y-616200D02*
X969600Y-616200D01*
X1060490Y-707090D02*
X1060490Y-844800D01*
X969600Y-616200D02*
X1060490Y-707090D01*
X636200Y-463800D02*
X947400Y-463800D01*
X947400Y-463800D02*
X969600Y-486000D01*
D32*
X2613000Y-3948000D02*
X2633300Y-3927700D01*
X2300000Y-3948000D02*
X2613000Y-3948000D01*
X2633300Y-4134100D02*
X2633300Y-3927700D01*
X2701200Y-4202000D02*
X2633300Y-4134100D01*
X3062000Y-4202000D02*
X2701200Y-4202000D01*
X3190200Y-771800D02*
X3186400Y-775600D01*
X3186400Y-775600D02*
X3062000Y-900000D01*
X3357200Y-771800D02*
X3190200Y-771800D01*
X4086300Y-1220600D02*
X3913700Y-1048000D01*
X3913700Y-1048000D02*
X3801700Y-1048000D01*
D33*
X4209500Y-1220600D02*
X4086300Y-1220600D01*
X1060490Y-844800D02*
X1123990Y-844800D01*
D32*
X1151800Y-3948000D02*
X1045800Y-3842000D01*
X2300000Y-3948000D02*
X1909400Y-3948000D01*
X1909400Y-3948000D02*
X1528400Y-3948000D01*
X1528400Y-3948000D02*
X1151800Y-3948000D01*
D33*
X1187490Y-844800D02*
X1187490Y-728510D01*
X1347400Y-619400D02*
X1347400Y-463800D01*
X1299800Y-667000D02*
X1347400Y-619400D01*
X1249000Y-667000D02*
X1299800Y-667000D01*
X1187490Y-728510D02*
X1249000Y-667000D01*
X1182960Y-3181600D02*
X1432560Y-2932000D01*
X1624920Y-2932000D02*
X2300000Y-2932000D01*
X1615440Y-2932000D02*
X1624920Y-2932000D01*
X1432560Y-2932000D02*
X1615440Y-2932000D01*
X875874Y-3181600D02*
X1182960Y-3181600D01*
X1607800Y-2924360D02*
X1615440Y-2932000D01*
X1607800Y-2724400D02*
X1607800Y-2924360D01*
X2300000Y-3186000D02*
X1850046Y-3186000D01*
X1850046Y-3186000D02*
X1845646Y-3181600D01*
X1653520Y-3216480D02*
X1652840Y-3217160D01*
X1652840Y-3217160D02*
X1645240Y-3217160D01*
X1645240Y-3217160D02*
X1645240Y-3216480D01*
D32*
X4156200Y-2624800D02*
X3892600Y-2624800D01*
X3703402Y-2435602D02*
X3703402Y-2267200D01*
X3892600Y-2624800D02*
X3703402Y-2435602D01*
X3700000Y-1900000D02*
X3700000Y-2263798D01*
X3700000Y-2263798D02*
X3703402Y-2267200D01*
D33*
X4209500Y-1779400D02*
X4209500Y-1620900D01*
X4088600Y-1500000D02*
X3700000Y-1500000D01*
X4209500Y-1620900D02*
X4088600Y-1500000D01*
D32*
X3700100Y-1225800D02*
X3700000Y-1225900D01*
X3700000Y-1225900D02*
X3700000Y-1500000D01*
X3062000Y-2932000D02*
X3225800Y-2932000D01*
X3366598Y-2791202D02*
X3509600Y-2791202D01*
X3225800Y-2932000D02*
X3366598Y-2791202D01*
D33*
X742990Y-844800D02*
X742990Y-1176990D01*
X1812200Y-2170000D02*
X2300000Y-2170000D01*
X1706200Y-2064000D02*
X1812200Y-2170000D01*
X1706200Y-1403600D02*
X1706200Y-2064000D01*
X1503000Y-1200400D02*
X1706200Y-1403600D01*
X766400Y-1200400D02*
X1503000Y-1200400D01*
X742990Y-1176990D02*
X766400Y-1200400D01*
X1506200Y-4172200D02*
X1506200Y-4375400D01*
X1506200Y-4375400D02*
X1503000Y-4375400D01*
X842600Y-1098800D02*
X842600Y-997200D01*
X869990Y-969810D02*
X869990Y-844800D01*
X842600Y-997200D02*
X869990Y-969810D01*
X817200Y-3816600D02*
X817200Y-3867400D01*
X750000Y-2550000D02*
X360000Y-2902200D01*
X360000Y-2902200D02*
X360000Y-3359400D01*
X360000Y-3359400D02*
X817200Y-3816600D01*
X3062000Y-3694000D02*
X3209200Y-3694000D01*
X1299800Y-4375400D02*
X817200Y-3867400D01*
X3154000Y-4375400D02*
X1503000Y-4375400D01*
X1503000Y-4375400D02*
X1299800Y-4375400D01*
X3306400Y-4223000D02*
X3154000Y-4375400D01*
X3306400Y-3791200D02*
X3306400Y-4223000D01*
X3209200Y-3694000D02*
X3306400Y-3791200D01*
X817200Y-3664200D02*
X893400Y-3588000D01*
X893400Y-3588000D02*
X1125200Y-3588000D01*
X842600Y-2470400D02*
X842600Y-2622800D01*
X842600Y-2622800D02*
X461600Y-3003800D01*
X461600Y-3003800D02*
X461600Y-3308600D01*
X461600Y-3308600D02*
X817200Y-3664200D01*
X817200Y-3664200D02*
X893400Y-3740400D01*
X933490Y-844800D02*
X933490Y-961090D01*
X933490Y-961090D02*
X995000Y-1022600D01*
X3382600Y-3760600D02*
X3062000Y-3440000D01*
X3382600Y-4273800D02*
X3382600Y-3760600D01*
X3179400Y-4477000D02*
X3382600Y-4273800D01*
X1198200Y-4477000D02*
X3179400Y-4477000D01*
X1000000Y-4265000D02*
X1198200Y-4477000D01*
X1410940Y-1364800D02*
X1515240Y-1469100D01*
X1515240Y-1469100D02*
X1515240Y-1854800D01*
X1314490Y-1364800D02*
X1410940Y-1364800D01*
X1250990Y-1819050D02*
X1215240Y-1854800D01*
X1250990Y-1364800D02*
X1250990Y-1819050D01*
X1187490Y-1495850D02*
X1110740Y-1572600D01*
X1110740Y-1572600D02*
X996440Y-1572600D01*
X996440Y-1572600D02*
X915240Y-1653800D01*
X915240Y-1653800D02*
X915240Y-1854800D01*
X1187490Y-1364800D02*
X1187490Y-1495850D01*
X2300000Y-900000D02*
X2286000Y-900000D01*
X2286000Y-900000D02*
X1884000Y-1302000D01*
X1884000Y-1302000D02*
X1884000Y-1403600D01*
X2300000Y-900000D02*
X2628200Y-900000D01*
X2628200Y-900000D02*
X2671400Y-943200D01*
X2306300Y-893700D02*
X2300000Y-900000D01*
X1888400Y-1916000D02*
X1884000Y-1911600D01*
X2300000Y-1916000D02*
X1888400Y-1916000D01*
X3922000Y-4175800D02*
X4672000Y-4175800D01*
X4675000Y-375000D02*
X3925000Y-375000D01*
X2646000Y-1606800D02*
X2955200Y-1916000D01*
X2955200Y-1916000D02*
X3062000Y-1916000D01*
X1888400Y-1662000D02*
X1884000Y-1657600D01*
X2300000Y-1662000D02*
X1888400Y-1662000D01*
X1215240Y-2504800D02*
X1215240Y-2254800D01*
X2428240Y-2424000D02*
X2300000Y-2424000D01*
X2498680Y-2353560D02*
X2428240Y-2424000D01*
X2498680Y-1733800D02*
X2498680Y-2353560D01*
X2426880Y-1662000D02*
X2498680Y-1733800D01*
X2300000Y-1662000D02*
X2426880Y-1662000D01*
X1515240Y-2483560D02*
X1515240Y-2254800D01*
X1503000Y-2495800D02*
X1515240Y-2483560D01*
X3062000Y-1408000D02*
X2650400Y-1408000D01*
X2650400Y-1408000D02*
X2493600Y-1251200D01*
X915240Y-2254800D02*
X915240Y-2390640D01*
X915240Y-2390640D02*
X1020400Y-2495800D01*
X3062000Y-1408000D02*
X3062000Y-1662000D01*
D34*
G36*
X4931500Y-4931500D02*
X68500Y-4931500D01*
X68500Y-4660107D01*
X3762778Y-4660107D01*
X3764462Y-4669323D01*
X3791298Y-4717189D01*
X3834409Y-4751142D01*
X3887231Y-4766013D01*
X3909300Y-4750128D01*
X3909300Y-4638500D01*
X3934700Y-4638500D01*
X3934700Y-4750128D01*
X3956769Y-4766013D01*
X4009591Y-4751142D01*
X4052702Y-4717189D01*
X4079538Y-4669323D01*
X4081222Y-4660107D01*
X4512778Y-4660107D01*
X4514462Y-4669323D01*
X4541298Y-4717189D01*
X4584409Y-4751142D01*
X4637231Y-4766013D01*
X4659300Y-4750128D01*
X4659300Y-4638500D01*
X4684700Y-4638500D01*
X4684700Y-4750128D01*
X4706769Y-4766013D01*
X4759591Y-4751142D01*
X4802702Y-4717189D01*
X4829538Y-4669323D01*
X4831222Y-4660107D01*
X4818972Y-4638500D01*
X4684700Y-4638500D01*
X4659300Y-4638500D01*
X4525028Y-4638500D01*
X4512778Y-4660107D01*
X4081222Y-4660107D01*
X4068972Y-4638500D01*
X3934700Y-4638500D01*
X3909300Y-4638500D01*
X3775028Y-4638500D01*
X3762778Y-4660107D01*
X68500Y-4660107D01*
X68500Y-4591493D01*
X3762778Y-4591493D01*
X3775028Y-4613100D01*
X3909300Y-4613100D01*
X3909300Y-4501472D01*
X3934700Y-4501472D01*
X3934700Y-4613100D01*
X4068972Y-4613100D01*
X4081222Y-4591493D01*
X4512778Y-4591493D01*
X4525028Y-4613100D01*
X4659300Y-4613100D01*
X4659300Y-4501472D01*
X4684700Y-4501472D01*
X4684700Y-4613100D01*
X4818972Y-4613100D01*
X4831222Y-4591493D01*
X4829538Y-4582277D01*
X4802702Y-4534411D01*
X4759591Y-4500458D01*
X4706769Y-4485587D01*
X4684700Y-4501472D01*
X4659300Y-4501472D01*
X4637231Y-4485587D01*
X4584409Y-4500458D01*
X4541298Y-4534411D01*
X4514462Y-4582277D01*
X4512778Y-4591493D01*
X4081222Y-4591493D01*
X4079538Y-4582277D01*
X4052702Y-4534411D01*
X4009591Y-4500458D01*
X3956769Y-4485587D01*
X3934700Y-4501472D01*
X3909300Y-4501472D01*
X3887231Y-4485587D01*
X3834409Y-4500458D01*
X3791298Y-4534411D01*
X3764462Y-4582277D01*
X3762778Y-4591493D01*
X68500Y-4591493D01*
X68500Y-2389422D01*
X81191Y-2409144D01*
X102411Y-2423643D01*
X127600Y-2428744D01*
X129100Y-2428744D01*
X129100Y-2446255D01*
X115672Y-2459660D01*
X99119Y-2499523D01*
X99081Y-2542687D01*
X115565Y-2582580D01*
X146060Y-2613128D01*
X185923Y-2629681D01*
X229087Y-2629719D01*
X268980Y-2613235D01*
X299528Y-2582741D01*
X316081Y-2542877D01*
X316119Y-2499713D01*
X299635Y-2459820D01*
X286100Y-2446261D01*
X286100Y-2428744D01*
X287600Y-2428744D01*
X311132Y-2424316D01*
X332744Y-2410409D01*
X347243Y-2389189D01*
X352344Y-2364000D01*
X352344Y-2164000D01*
X347916Y-2140468D01*
X334009Y-2118856D01*
X312789Y-2104357D01*
X287600Y-2099256D01*
X127600Y-2099256D01*
X104068Y-2103684D01*
X82456Y-2117591D01*
X68500Y-2138016D01*
X68500Y-1989422D01*
X81191Y-2009144D01*
X102411Y-2023643D01*
X127600Y-2028744D01*
X287600Y-2028744D01*
X311132Y-2024316D01*
X332744Y-2010409D01*
X347243Y-1989189D01*
X352344Y-1964000D01*
X352344Y-1764000D01*
X347916Y-1740468D01*
X334009Y-1718856D01*
X312789Y-1704357D01*
X299874Y-1701742D01*
X417916Y-1583700D01*
X588600Y-1583700D01*
X612348Y-1578976D01*
X559732Y-1631592D01*
X542716Y-1657059D01*
X540472Y-1668340D01*
X536740Y-1687100D01*
X536740Y-1690056D01*
X535240Y-1690056D01*
X511708Y-1694484D01*
X490096Y-1708391D01*
X475597Y-1729611D01*
X470496Y-1754800D01*
X470496Y-1954800D01*
X474924Y-1978332D01*
X488831Y-1999944D01*
X510051Y-2014443D01*
X535240Y-2019544D01*
X695240Y-2019544D01*
X718772Y-2015116D01*
X740384Y-2001209D01*
X754883Y-1979989D01*
X759984Y-1954800D01*
X759984Y-1754800D01*
X755556Y-1731268D01*
X741649Y-1709656D01*
X720429Y-1695157D01*
X718574Y-1694781D01*
X724156Y-1689200D01*
X780540Y-1689200D01*
X810581Y-1683224D01*
X836048Y-1666208D01*
X836740Y-1665516D01*
X836740Y-1690056D01*
X830240Y-1690056D01*
X806708Y-1694484D01*
X785096Y-1708391D01*
X770597Y-1729611D01*
X765496Y-1754800D01*
X765496Y-1954800D01*
X769924Y-1978332D01*
X783831Y-1999944D01*
X805051Y-2014443D01*
X830240Y-2019544D01*
X1000240Y-2019544D01*
X1023772Y-2015116D01*
X1045384Y-2001209D01*
X1059883Y-1979989D01*
X1064984Y-1954800D01*
X1064984Y-1754800D01*
X1060556Y-1731268D01*
X1046649Y-1709656D01*
X1025429Y-1695157D01*
X1000240Y-1690056D01*
X993740Y-1690056D01*
X993740Y-1686316D01*
X1028956Y-1651100D01*
X1110740Y-1651100D01*
X1140781Y-1645124D01*
X1166248Y-1628108D01*
X1172490Y-1621866D01*
X1172490Y-1690056D01*
X1130240Y-1690056D01*
X1106708Y-1694484D01*
X1085096Y-1708391D01*
X1070597Y-1729611D01*
X1065496Y-1754800D01*
X1065496Y-1954800D01*
X1069924Y-1978332D01*
X1083831Y-1999944D01*
X1105051Y-2014443D01*
X1130240Y-2019544D01*
X1300240Y-2019544D01*
X1323772Y-2015116D01*
X1345384Y-2001209D01*
X1359883Y-1979989D01*
X1364984Y-1954800D01*
X1364984Y-1754800D01*
X1360556Y-1731268D01*
X1346649Y-1709656D01*
X1329490Y-1697932D01*
X1329490Y-1489544D01*
X1334490Y-1489544D01*
X1358022Y-1485116D01*
X1379634Y-1471209D01*
X1390472Y-1455348D01*
X1436740Y-1501616D01*
X1436740Y-1690056D01*
X1430240Y-1690056D01*
X1406708Y-1694484D01*
X1385096Y-1708391D01*
X1370597Y-1729611D01*
X1365496Y-1754800D01*
X1365496Y-1954800D01*
X1369924Y-1978332D01*
X1383831Y-1999944D01*
X1405051Y-2014443D01*
X1430240Y-2019544D01*
X1600240Y-2019544D01*
X1623772Y-2015116D01*
X1627700Y-2012588D01*
X1627700Y-2064000D01*
X1633675Y-2094041D01*
X1641976Y-2106463D01*
X1625429Y-2095157D01*
X1600240Y-2090056D01*
X1430240Y-2090056D01*
X1406708Y-2094484D01*
X1385096Y-2108391D01*
X1370597Y-2129611D01*
X1365496Y-2154800D01*
X1365496Y-2354800D01*
X1369924Y-2378332D01*
X1383831Y-2399944D01*
X1405051Y-2414443D01*
X1426560Y-2418799D01*
X1411072Y-2434260D01*
X1394519Y-2474123D01*
X1394481Y-2517287D01*
X1410965Y-2557180D01*
X1441459Y-2587728D01*
X1464036Y-2597103D01*
X1462656Y-2597991D01*
X1448157Y-2619211D01*
X1443056Y-2644400D01*
X1443056Y-2804400D01*
X1447484Y-2827932D01*
X1461391Y-2849544D01*
X1467181Y-2853500D01*
X1432560Y-2853500D01*
X1402519Y-2859475D01*
X1377052Y-2876492D01*
X1210070Y-3043474D01*
X1202318Y-3031427D01*
X1181098Y-3016928D01*
X1155909Y-3011827D01*
X595839Y-3011827D01*
X572307Y-3016255D01*
X550695Y-3030162D01*
X540100Y-3045668D01*
X540100Y-3036316D01*
X898108Y-2678308D01*
X915124Y-2652841D01*
X921100Y-2622800D01*
X921100Y-2545345D01*
X922781Y-2543667D01*
X928365Y-2557180D01*
X958859Y-2587728D01*
X998723Y-2604281D01*
X1041887Y-2604319D01*
X1081780Y-2587835D01*
X1112328Y-2557341D01*
X1115949Y-2548620D01*
X1123205Y-2566180D01*
X1153700Y-2596728D01*
X1193563Y-2613281D01*
X1236727Y-2613319D01*
X1276620Y-2596835D01*
X1307168Y-2566341D01*
X1323721Y-2526477D01*
X1323759Y-2483313D01*
X1307275Y-2443420D01*
X1293740Y-2429861D01*
X1293740Y-2419544D01*
X1300240Y-2419544D01*
X1323772Y-2415116D01*
X1345384Y-2401209D01*
X1359883Y-2379989D01*
X1364984Y-2354800D01*
X1364984Y-2154800D01*
X1360556Y-2131268D01*
X1346649Y-2109656D01*
X1325429Y-2095157D01*
X1300240Y-2090056D01*
X1130240Y-2090056D01*
X1106708Y-2094484D01*
X1085096Y-2108391D01*
X1070597Y-2129611D01*
X1065496Y-2154800D01*
X1065496Y-2354800D01*
X1069924Y-2378332D01*
X1083831Y-2399944D01*
X1105051Y-2414443D01*
X1130240Y-2419544D01*
X1136740Y-2419544D01*
X1136740Y-2429855D01*
X1123312Y-2443260D01*
X1119691Y-2451980D01*
X1112435Y-2434420D01*
X1081941Y-2403872D01*
X1052046Y-2391459D01*
X1059883Y-2379989D01*
X1064984Y-2354800D01*
X1064984Y-2154800D01*
X1060556Y-2131268D01*
X1046649Y-2109656D01*
X1025429Y-2095157D01*
X1000240Y-2090056D01*
X830240Y-2090056D01*
X806708Y-2094484D01*
X785096Y-2108391D01*
X770597Y-2129611D01*
X765496Y-2154800D01*
X765496Y-2354800D01*
X769924Y-2378332D01*
X774355Y-2385218D01*
X750672Y-2408860D01*
X734371Y-2448116D01*
X709207Y-2448094D01*
X707275Y-2443420D01*
X693740Y-2429861D01*
X693740Y-2419544D01*
X695240Y-2419544D01*
X718772Y-2415116D01*
X740384Y-2401209D01*
X754883Y-2379989D01*
X759984Y-2354800D01*
X759984Y-2154800D01*
X755556Y-2131268D01*
X741649Y-2109656D01*
X720429Y-2095157D01*
X695240Y-2090056D01*
X535240Y-2090056D01*
X511708Y-2094484D01*
X490096Y-2108391D01*
X475597Y-2129611D01*
X470496Y-2154800D01*
X470496Y-2354800D01*
X474924Y-2378332D01*
X488831Y-2399944D01*
X510051Y-2414443D01*
X535240Y-2419544D01*
X536740Y-2419544D01*
X536740Y-2429855D01*
X523312Y-2443260D01*
X506759Y-2483123D01*
X506747Y-2496840D01*
X205882Y-2767655D01*
X204631Y-2769330D01*
X202892Y-2770492D01*
X195507Y-2781545D01*
X187552Y-2792194D01*
X187037Y-2794221D01*
X185875Y-2795959D01*
X183282Y-2808997D01*
X180008Y-2821879D01*
X180308Y-2823949D01*
X179900Y-2826000D01*
X179900Y-3418142D01*
X138422Y-3445857D01*
X102633Y-3499419D01*
X90065Y-3562600D01*
X102633Y-3625781D01*
X125350Y-3659779D01*
X111656Y-3668591D01*
X97157Y-3689811D01*
X92056Y-3715000D01*
X92056Y-3918200D01*
X96484Y-3941732D01*
X110391Y-3963344D01*
X131611Y-3977843D01*
X156800Y-3982944D01*
X360000Y-3982944D01*
X383532Y-3978516D01*
X405144Y-3964609D01*
X419643Y-3943389D01*
X424744Y-3918200D01*
X424744Y-3715000D01*
X420316Y-3691468D01*
X406409Y-3669856D01*
X391516Y-3659680D01*
X414167Y-3625781D01*
X426734Y-3562600D01*
X420415Y-3530831D01*
X716520Y-3826936D01*
X708719Y-3845723D01*
X708681Y-3888887D01*
X725165Y-3928780D01*
X755659Y-3959328D01*
X795523Y-3975881D01*
X811995Y-3975895D01*
X991926Y-4165297D01*
X973513Y-4165281D01*
X933620Y-4181765D01*
X903072Y-4212260D01*
X886519Y-4252123D01*
X886481Y-4295287D01*
X902965Y-4335180D01*
X933459Y-4365728D01*
X973323Y-4382281D01*
X992482Y-4382298D01*
X1142692Y-4532508D01*
X1168159Y-4549525D01*
X1198200Y-4555500D01*
X3179400Y-4555500D01*
X3209441Y-4549525D01*
X3234908Y-4532508D01*
X3438108Y-4329308D01*
X3455124Y-4303841D01*
X3461100Y-4273800D01*
X3461100Y-3975074D01*
X3543840Y-4057959D01*
X3677383Y-4113411D01*
X3771841Y-4113493D01*
X3765931Y-4122339D01*
X3755297Y-4175800D01*
X3765931Y-4229261D01*
X3796214Y-4274583D01*
X3841536Y-4304866D01*
X3894997Y-4315500D01*
X3949003Y-4315500D01*
X4002464Y-4304866D01*
X4047786Y-4274583D01*
X4061339Y-4254300D01*
X4532661Y-4254300D01*
X4546214Y-4274583D01*
X4591536Y-4304866D01*
X4644997Y-4315500D01*
X4699003Y-4315500D01*
X4752464Y-4304866D01*
X4797786Y-4274583D01*
X4828069Y-4229261D01*
X4838703Y-4175800D01*
X4828069Y-4122339D01*
X4797786Y-4077017D01*
X4752464Y-4046734D01*
X4699003Y-4036100D01*
X4644997Y-4036100D01*
X4591536Y-4046734D01*
X4546214Y-4077017D01*
X4532661Y-4097300D01*
X4061339Y-4097300D01*
X4047786Y-4077017D01*
X4002464Y-4046734D01*
X3973081Y-4040889D01*
X4057959Y-3956160D01*
X4113411Y-3822617D01*
X4113537Y-3678018D01*
X4058318Y-3544377D01*
X4035234Y-3521253D01*
X4475708Y-3521253D01*
X4494736Y-3555727D01*
X4582859Y-3590896D01*
X4677732Y-3589664D01*
X4759664Y-3555727D01*
X4778692Y-3521253D01*
X4627200Y-3369760D01*
X4475708Y-3521253D01*
X4035234Y-3521253D01*
X3956160Y-3442041D01*
X3822617Y-3386589D01*
X3678018Y-3386463D01*
X3660094Y-3393869D01*
X3663143Y-3386509D01*
X3663143Y-3307459D01*
X4388104Y-3307459D01*
X4389336Y-3402332D01*
X4423273Y-3484264D01*
X4457747Y-3503292D01*
X4609240Y-3351800D01*
X4645161Y-3351800D01*
X4796653Y-3503292D01*
X4831127Y-3484264D01*
X4866296Y-3396141D01*
X4865064Y-3301268D01*
X4831127Y-3219336D01*
X4796653Y-3200308D01*
X4645161Y-3351800D01*
X4609240Y-3351800D01*
X4457747Y-3200308D01*
X4423273Y-3219336D01*
X4388104Y-3307459D01*
X3663143Y-3307459D01*
X3663143Y-3244973D01*
X3647268Y-3229098D01*
X3522300Y-3229098D01*
X3522300Y-3421503D01*
X3538175Y-3437378D01*
X3554794Y-3437378D01*
X3544377Y-3441682D01*
X3442041Y-3543840D01*
X3393575Y-3660559D01*
X3202455Y-3469440D01*
X3208311Y-3440000D01*
X3197388Y-3385085D01*
X3166281Y-3338530D01*
X3125830Y-3311501D01*
X3147513Y-3301239D01*
X3185104Y-3259742D01*
X3191221Y-3244973D01*
X3356057Y-3244973D01*
X3356057Y-3386509D01*
X3365724Y-3409848D01*
X3383587Y-3427711D01*
X3406926Y-3437378D01*
X3481025Y-3437378D01*
X3496900Y-3421503D01*
X3496900Y-3229098D01*
X3371932Y-3229098D01*
X3356057Y-3244973D01*
X3191221Y-3244973D01*
X3201190Y-3220904D01*
X3188991Y-3198700D01*
X3074700Y-3198700D01*
X3074700Y-3200700D01*
X3049300Y-3200700D01*
X3049300Y-3198700D01*
X2935008Y-3198700D01*
X2922810Y-3220904D01*
X2938896Y-3259742D01*
X2976487Y-3301239D01*
X2998170Y-3311501D01*
X2957719Y-3338530D01*
X2926612Y-3385085D01*
X2915689Y-3440000D01*
X2926612Y-3494915D01*
X2957719Y-3541470D01*
X2995927Y-3567000D01*
X2957719Y-3592530D01*
X2926612Y-3639085D01*
X2915689Y-3694000D01*
X2926612Y-3748915D01*
X2957719Y-3795470D01*
X2995927Y-3821000D01*
X2957719Y-3846530D01*
X2926612Y-3893085D01*
X2915689Y-3948000D01*
X2926612Y-4002915D01*
X2957719Y-4049470D01*
X2995927Y-4075000D01*
X2960757Y-4098500D01*
X2744071Y-4098500D01*
X2736800Y-4091229D01*
X2736800Y-4088022D01*
X2736832Y-4088016D01*
X2758444Y-4074109D01*
X2772943Y-4052889D01*
X2778044Y-4027700D01*
X2778044Y-3827700D01*
X2773616Y-3804168D01*
X2759709Y-3782556D01*
X2738489Y-3768057D01*
X2713300Y-3762956D01*
X2553300Y-3762956D01*
X2529768Y-3767384D01*
X2508156Y-3781291D01*
X2493657Y-3802511D01*
X2488556Y-3827700D01*
X2488556Y-3844500D01*
X2401243Y-3844500D01*
X2366073Y-3821000D01*
X2404281Y-3795470D01*
X2435388Y-3748915D01*
X2446311Y-3694000D01*
X2435388Y-3639085D01*
X2404281Y-3592530D01*
X2366073Y-3567000D01*
X2382124Y-3556275D01*
X2489800Y-3556275D01*
X2489800Y-3640331D01*
X2499467Y-3663670D01*
X2517330Y-3681533D01*
X2540669Y-3691200D01*
X2604725Y-3691200D01*
X2620600Y-3675325D01*
X2620600Y-3540400D01*
X2646000Y-3540400D01*
X2646000Y-3675325D01*
X2661875Y-3691200D01*
X2725931Y-3691200D01*
X2749270Y-3681533D01*
X2767133Y-3663670D01*
X2776800Y-3640331D01*
X2776800Y-3556275D01*
X2760925Y-3540400D01*
X2646000Y-3540400D01*
X2620600Y-3540400D01*
X2505675Y-3540400D01*
X2489800Y-3556275D01*
X2382124Y-3556275D01*
X2404281Y-3541470D01*
X2435388Y-3494915D01*
X2446311Y-3440000D01*
X2441352Y-3415069D01*
X2489800Y-3415069D01*
X2489800Y-3499125D01*
X2505675Y-3515000D01*
X2620600Y-3515000D01*
X2620600Y-3380075D01*
X2646000Y-3380075D01*
X2646000Y-3515000D01*
X2760925Y-3515000D01*
X2776800Y-3499125D01*
X2776800Y-3415069D01*
X2767133Y-3391730D01*
X2749270Y-3373867D01*
X2725931Y-3364200D01*
X2661875Y-3364200D01*
X2646000Y-3380075D01*
X2620600Y-3380075D01*
X2604725Y-3364200D01*
X2540669Y-3364200D01*
X2517330Y-3373867D01*
X2499467Y-3391730D01*
X2489800Y-3415069D01*
X2441352Y-3415069D01*
X2435388Y-3385085D01*
X2404281Y-3338530D01*
X2366073Y-3313000D01*
X2404281Y-3287470D01*
X2435388Y-3240915D01*
X2446311Y-3186000D01*
X2435388Y-3131085D01*
X2404281Y-3084530D01*
X2366073Y-3059000D01*
X2404281Y-3033470D01*
X2435388Y-2986915D01*
X2446311Y-2932000D01*
X2435388Y-2877085D01*
X2404281Y-2830530D01*
X2363830Y-2803501D01*
X2385513Y-2793239D01*
X2423104Y-2751742D01*
X2439190Y-2712904D01*
X2426992Y-2690700D01*
X2312700Y-2690700D01*
X2312700Y-2692700D01*
X2287300Y-2692700D01*
X2287300Y-2690700D01*
X2285300Y-2690700D01*
X2285300Y-2665300D01*
X2287300Y-2665300D01*
X2287300Y-2663300D01*
X2312700Y-2663300D01*
X2312700Y-2665300D01*
X2426992Y-2665300D01*
X2439190Y-2643096D01*
X2423104Y-2604258D01*
X2385513Y-2562761D01*
X2363830Y-2552499D01*
X2404281Y-2525470D01*
X2419629Y-2502500D01*
X2428240Y-2502500D01*
X2458281Y-2496525D01*
X2483748Y-2479508D01*
X2554188Y-2409068D01*
X2571205Y-2383601D01*
X2577180Y-2353560D01*
X2577180Y-1733800D01*
X2576676Y-1731268D01*
X2571205Y-1703759D01*
X2554188Y-1678292D01*
X2482388Y-1606492D01*
X2456921Y-1589475D01*
X2426880Y-1583500D01*
X2419629Y-1583500D01*
X2404281Y-1560530D01*
X2366073Y-1535000D01*
X2404281Y-1509470D01*
X2435388Y-1462915D01*
X2446311Y-1408000D01*
X2435388Y-1353085D01*
X2422006Y-1333057D01*
X2432060Y-1343128D01*
X2471923Y-1359681D01*
X2491082Y-1359698D01*
X2594892Y-1463508D01*
X2620359Y-1480524D01*
X2650400Y-1486500D01*
X2942371Y-1486500D01*
X2957719Y-1509470D01*
X2983500Y-1526696D01*
X2983500Y-1543304D01*
X2957719Y-1560530D01*
X2926612Y-1607085D01*
X2915689Y-1662000D01*
X2926612Y-1716915D01*
X2957719Y-1763470D01*
X2995927Y-1789000D01*
X2961931Y-1811715D01*
X2754502Y-1604286D01*
X2754519Y-1585313D01*
X2738035Y-1545420D01*
X2707541Y-1514872D01*
X2667677Y-1498319D01*
X2624513Y-1498281D01*
X2584620Y-1514765D01*
X2554072Y-1545259D01*
X2537519Y-1585123D01*
X2537481Y-1628287D01*
X2553965Y-1668180D01*
X2584460Y-1698728D01*
X2624323Y-1715281D01*
X2643482Y-1715298D01*
X2899692Y-1971508D01*
X2925159Y-1988524D01*
X2940404Y-1991557D01*
X2957719Y-2017470D01*
X2995927Y-2043000D01*
X2957719Y-2068530D01*
X2926612Y-2115085D01*
X2915689Y-2170000D01*
X2926612Y-2224915D01*
X2957719Y-2271470D01*
X2995927Y-2297000D01*
X2957719Y-2322530D01*
X2926612Y-2369085D01*
X2915689Y-2424000D01*
X2926612Y-2478915D01*
X2957719Y-2525470D01*
X2995927Y-2551000D01*
X2957719Y-2576530D01*
X2926612Y-2623085D01*
X2915689Y-2678000D01*
X2926612Y-2732915D01*
X2957719Y-2779470D01*
X2995927Y-2805000D01*
X2957719Y-2830530D01*
X2926612Y-2877085D01*
X2915689Y-2932000D01*
X2926612Y-2986915D01*
X2957719Y-3033470D01*
X2998170Y-3060499D01*
X2976487Y-3070761D01*
X2938896Y-3112258D01*
X2922810Y-3151096D01*
X2935008Y-3173300D01*
X3049300Y-3173300D01*
X3049300Y-3171300D01*
X3074700Y-3171300D01*
X3074700Y-3173300D01*
X3188991Y-3173300D01*
X3201190Y-3151096D01*
X3185104Y-3112258D01*
X3147513Y-3070761D01*
X3125830Y-3060499D01*
X3163243Y-3035500D01*
X3225799Y-3035500D01*
X3225800Y-3035500D01*
X3265408Y-3027621D01*
X3298986Y-3005186D01*
X3354920Y-2949251D01*
X3359241Y-2972214D01*
X3373148Y-2993826D01*
X3387347Y-3003528D01*
X3383587Y-3005085D01*
X3365724Y-3022948D01*
X3356057Y-3046287D01*
X3356057Y-3187823D01*
X3371932Y-3203698D01*
X3496900Y-3203698D01*
X3496900Y-3201698D01*
X3522300Y-3201698D01*
X3522300Y-3203698D01*
X3647268Y-3203698D01*
X3663143Y-3187823D01*
X3663143Y-3182347D01*
X4475708Y-3182347D01*
X4627200Y-3333839D01*
X4778692Y-3182347D01*
X4759664Y-3147873D01*
X4671541Y-3112704D01*
X4576668Y-3113936D01*
X4494736Y-3147873D01*
X4475708Y-3182347D01*
X3663143Y-3182347D01*
X3663143Y-3046287D01*
X3653476Y-3022948D01*
X3635613Y-3005085D01*
X3631745Y-3003483D01*
X3644787Y-2995091D01*
X3659286Y-2973871D01*
X3664387Y-2948682D01*
X3664387Y-2633722D01*
X3659959Y-2610190D01*
X3646052Y-2588578D01*
X3624832Y-2574079D01*
X3599643Y-2568978D01*
X3419557Y-2568978D01*
X3396025Y-2573406D01*
X3374413Y-2587313D01*
X3359914Y-2608533D01*
X3354813Y-2633722D01*
X3354813Y-2690046D01*
X3326990Y-2695581D01*
X3318430Y-2701300D01*
X3293412Y-2718016D01*
X3293412Y-2718017D01*
X3182929Y-2828500D01*
X3163243Y-2828500D01*
X3128072Y-2805000D01*
X3166281Y-2779470D01*
X3197388Y-2732915D01*
X3208311Y-2678000D01*
X3197388Y-2623085D01*
X3166281Y-2576530D01*
X3128072Y-2551000D01*
X3166281Y-2525470D01*
X3197388Y-2478915D01*
X3208311Y-2424000D01*
X3197388Y-2369085D01*
X3166281Y-2322530D01*
X3128072Y-2297000D01*
X3166281Y-2271470D01*
X3197388Y-2224915D01*
X3206888Y-2177157D01*
X3481178Y-2177157D01*
X3481178Y-2357243D01*
X3485606Y-2380775D01*
X3499513Y-2402387D01*
X3520733Y-2416886D01*
X3545922Y-2421987D01*
X3599902Y-2421987D01*
X3599902Y-2435602D01*
X3599902Y-2435602D01*
X3607780Y-2475210D01*
X3630216Y-2508788D01*
X3819414Y-2697985D01*
X3819414Y-2697986D01*
X3852992Y-2720422D01*
X3892600Y-2728300D01*
X3892600Y-2728300D01*
X4062126Y-2728300D01*
X4076963Y-2743163D01*
X4092923Y-2749790D01*
X4077170Y-2756299D01*
X4037837Y-2795563D01*
X4016524Y-2846890D01*
X4016476Y-2902466D01*
X4037699Y-2953830D01*
X4076963Y-2993163D01*
X4128290Y-3014476D01*
X4183866Y-3014524D01*
X4235230Y-2993301D01*
X4256202Y-2972366D01*
X4276963Y-2993163D01*
X4328290Y-3014476D01*
X4383866Y-3014524D01*
X4435230Y-2993301D01*
X4474563Y-2954037D01*
X4495876Y-2902710D01*
X4495924Y-2847134D01*
X4474701Y-2795770D01*
X4435437Y-2756437D01*
X4421050Y-2750463D01*
X4429314Y-2747040D01*
X4436261Y-2722821D01*
X4356200Y-2642761D01*
X4276139Y-2722821D01*
X4283086Y-2747040D01*
X4291937Y-2750197D01*
X4277170Y-2756299D01*
X4256198Y-2777234D01*
X4235437Y-2756437D01*
X4219477Y-2749810D01*
X4235230Y-2743301D01*
X4274563Y-2704037D01*
X4285612Y-2677427D01*
X4338240Y-2624800D01*
X4374161Y-2624800D01*
X4454221Y-2704861D01*
X4478440Y-2697914D01*
X4497114Y-2645570D01*
X4494336Y-2590063D01*
X4478440Y-2551686D01*
X4454221Y-2544739D01*
X4374161Y-2624800D01*
X4338240Y-2624800D01*
X4285609Y-2572170D01*
X4274701Y-2545770D01*
X4255743Y-2526779D01*
X4276139Y-2526779D01*
X4356200Y-2606840D01*
X4436261Y-2526779D01*
X4429314Y-2502560D01*
X4376970Y-2483886D01*
X4321463Y-2486664D01*
X4283086Y-2502560D01*
X4276139Y-2526779D01*
X4255743Y-2526779D01*
X4235437Y-2506437D01*
X4184110Y-2485124D01*
X4128534Y-2485076D01*
X4077170Y-2506299D01*
X4062142Y-2521300D01*
X3935471Y-2521300D01*
X3836158Y-2421987D01*
X3860882Y-2421987D01*
X3884414Y-2417559D01*
X3906026Y-2403652D01*
X3915728Y-2389453D01*
X3917285Y-2393213D01*
X3935148Y-2411076D01*
X3958487Y-2420743D01*
X4100023Y-2420743D01*
X4115898Y-2404868D01*
X4115898Y-2279900D01*
X4141298Y-2279900D01*
X4141298Y-2404868D01*
X4157173Y-2420743D01*
X4298709Y-2420743D01*
X4322048Y-2411076D01*
X4339911Y-2393213D01*
X4349578Y-2369874D01*
X4349578Y-2317253D01*
X4475708Y-2317253D01*
X4494736Y-2351727D01*
X4582859Y-2386896D01*
X4677732Y-2385664D01*
X4759664Y-2351727D01*
X4778692Y-2317253D01*
X4627200Y-2165761D01*
X4475708Y-2317253D01*
X4349578Y-2317253D01*
X4349578Y-2295775D01*
X4333703Y-2279900D01*
X4141298Y-2279900D01*
X4115898Y-2279900D01*
X4113898Y-2279900D01*
X4113898Y-2254500D01*
X4115898Y-2254500D01*
X4115898Y-2129532D01*
X4141298Y-2129532D01*
X4141298Y-2254500D01*
X4333703Y-2254500D01*
X4349578Y-2238625D01*
X4349578Y-2164526D01*
X4339911Y-2141187D01*
X4322048Y-2123324D01*
X4298709Y-2113657D01*
X4157173Y-2113657D01*
X4141298Y-2129532D01*
X4115898Y-2129532D01*
X4100023Y-2113657D01*
X3958487Y-2113657D01*
X3935148Y-2123324D01*
X3917285Y-2141187D01*
X3915683Y-2145055D01*
X3907291Y-2132013D01*
X3886071Y-2117514D01*
X3860882Y-2112413D01*
X3803500Y-2112413D01*
X3803500Y-2103459D01*
X4388104Y-2103459D01*
X4389336Y-2198332D01*
X4423273Y-2280264D01*
X4457747Y-2299292D01*
X4609240Y-2147800D01*
X4645161Y-2147800D01*
X4796653Y-2299292D01*
X4831127Y-2280264D01*
X4866296Y-2192141D01*
X4865064Y-2097268D01*
X4831127Y-2015336D01*
X4796653Y-1996308D01*
X4645161Y-2147800D01*
X4609240Y-2147800D01*
X4457747Y-1996308D01*
X4423273Y-2015336D01*
X4388104Y-2103459D01*
X3803500Y-2103459D01*
X3803500Y-2064744D01*
X3825000Y-2064744D01*
X3848532Y-2060316D01*
X3870144Y-2046409D01*
X3884643Y-2025189D01*
X3889744Y-2000000D01*
X3889744Y-1978347D01*
X4475708Y-1978347D01*
X4627200Y-2129840D01*
X4778692Y-1978347D01*
X4759664Y-1943873D01*
X4671541Y-1908704D01*
X4624389Y-1909316D01*
X4647974Y-1898014D01*
X4672466Y-1870278D01*
X4684480Y-1835280D01*
X4684480Y-1792100D01*
X4603200Y-1792100D01*
X4603200Y-1794100D01*
X4577800Y-1794100D01*
X4577800Y-1792100D01*
X4476200Y-1792100D01*
X4476200Y-1899646D01*
X4490611Y-1912565D01*
X4520974Y-1898014D01*
X4527000Y-1891190D01*
X4533026Y-1898014D01*
X4563390Y-1912565D01*
X4577800Y-1899646D01*
X4577800Y-1909921D01*
X4576668Y-1909936D01*
X4494736Y-1943873D01*
X4475708Y-1978347D01*
X3889744Y-1978347D01*
X3889744Y-1800000D01*
X3885316Y-1776468D01*
X3871409Y-1754856D01*
X3850189Y-1740357D01*
X3825000Y-1735256D01*
X3575000Y-1735256D01*
X3551468Y-1739684D01*
X3529856Y-1753591D01*
X3515357Y-1774811D01*
X3510256Y-1800000D01*
X3510256Y-2000000D01*
X3514684Y-2023532D01*
X3528591Y-2045144D01*
X3549811Y-2059643D01*
X3575000Y-2064744D01*
X3596500Y-2064744D01*
X3596500Y-2112413D01*
X3545922Y-2112413D01*
X3522390Y-2116841D01*
X3500778Y-2130748D01*
X3486279Y-2151968D01*
X3481178Y-2177157D01*
X3206888Y-2177157D01*
X3208311Y-2170000D01*
X3197388Y-2115085D01*
X3166281Y-2068530D01*
X3128072Y-2043000D01*
X3166281Y-2017470D01*
X3197388Y-1970915D01*
X3208311Y-1916000D01*
X3197388Y-1861085D01*
X3166281Y-1814530D01*
X3128072Y-1789000D01*
X3166281Y-1763470D01*
X3197388Y-1716915D01*
X3208311Y-1662000D01*
X3197388Y-1607085D01*
X3166281Y-1560530D01*
X3140500Y-1543304D01*
X3140500Y-1526696D01*
X3166281Y-1509470D01*
X3197388Y-1462915D01*
X3208311Y-1408000D01*
X3206720Y-1400000D01*
X3510256Y-1400000D01*
X3510256Y-1600000D01*
X3514684Y-1623532D01*
X3528591Y-1645144D01*
X3549811Y-1659643D01*
X3575000Y-1664744D01*
X3825000Y-1664744D01*
X3848532Y-1660316D01*
X3870144Y-1646409D01*
X3884643Y-1625189D01*
X3889744Y-1600000D01*
X3889744Y-1578500D01*
X4056084Y-1578500D01*
X4131000Y-1653416D01*
X4131000Y-1685107D01*
X4122674Y-1697568D01*
X4115520Y-1733533D01*
X4115520Y-1825267D01*
X4122674Y-1861232D01*
X4143046Y-1891721D01*
X4173535Y-1912093D01*
X4209500Y-1919247D01*
X4245465Y-1912093D01*
X4274391Y-1892765D01*
X4279026Y-1898014D01*
X4309390Y-1912565D01*
X4323800Y-1899646D01*
X4323800Y-1792100D01*
X4349200Y-1792100D01*
X4349200Y-1899646D01*
X4363611Y-1912565D01*
X4393974Y-1898014D01*
X4400000Y-1891190D01*
X4406026Y-1898014D01*
X4436390Y-1912565D01*
X4450800Y-1899646D01*
X4450800Y-1792100D01*
X4349200Y-1792100D01*
X4323800Y-1792100D01*
X4321800Y-1792100D01*
X4321800Y-1766700D01*
X4323800Y-1766700D01*
X4323800Y-1659154D01*
X4349200Y-1659154D01*
X4349200Y-1766700D01*
X4450800Y-1766700D01*
X4450800Y-1659154D01*
X4476200Y-1659154D01*
X4476200Y-1766700D01*
X4577800Y-1766700D01*
X4577800Y-1659154D01*
X4603200Y-1659154D01*
X4603200Y-1766700D01*
X4684480Y-1766700D01*
X4684480Y-1723520D01*
X4672466Y-1688522D01*
X4647974Y-1660786D01*
X4617611Y-1646235D01*
X4603200Y-1659154D01*
X4577800Y-1659154D01*
X4563390Y-1646235D01*
X4533026Y-1660786D01*
X4527000Y-1667610D01*
X4520974Y-1660786D01*
X4490611Y-1646235D01*
X4476200Y-1659154D01*
X4450800Y-1659154D01*
X4436390Y-1646235D01*
X4406026Y-1660786D01*
X4400000Y-1667610D01*
X4393974Y-1660786D01*
X4363611Y-1646235D01*
X4349200Y-1659154D01*
X4323800Y-1659154D01*
X4309390Y-1646235D01*
X4288000Y-1656485D01*
X4288000Y-1620900D01*
X4284368Y-1602641D01*
X4282025Y-1590859D01*
X4265008Y-1565392D01*
X4144108Y-1444492D01*
X4118641Y-1427475D01*
X4088600Y-1421500D01*
X3889744Y-1421500D01*
X3889744Y-1400000D01*
X3885316Y-1376468D01*
X3871409Y-1354856D01*
X3850189Y-1340357D01*
X3825000Y-1335256D01*
X3803500Y-1335256D01*
X3803500Y-1259713D01*
X3808581Y-1247477D01*
X3808619Y-1204313D01*
X3792135Y-1164420D01*
X3784214Y-1156485D01*
X3823187Y-1156519D01*
X3835334Y-1151500D01*
X3870829Y-1151500D01*
X4013114Y-1293786D01*
X4046692Y-1316222D01*
X4086300Y-1324100D01*
X4125908Y-1316222D01*
X4130042Y-1313459D01*
X4143046Y-1332921D01*
X4173535Y-1353293D01*
X4209500Y-1360447D01*
X4245465Y-1353293D01*
X4274391Y-1333965D01*
X4279026Y-1339214D01*
X4309390Y-1353765D01*
X4323800Y-1340846D01*
X4323800Y-1233300D01*
X4349200Y-1233300D01*
X4349200Y-1340846D01*
X4363611Y-1353765D01*
X4393974Y-1339214D01*
X4400000Y-1332390D01*
X4406026Y-1339214D01*
X4436390Y-1353765D01*
X4450800Y-1340846D01*
X4450800Y-1233300D01*
X4349200Y-1233300D01*
X4323800Y-1233300D01*
X4321800Y-1233300D01*
X4321800Y-1207900D01*
X4323800Y-1207900D01*
X4323800Y-1100354D01*
X4349200Y-1100354D01*
X4349200Y-1207900D01*
X4450800Y-1207900D01*
X4450800Y-1100354D01*
X4476200Y-1100354D01*
X4476200Y-1207900D01*
X4478200Y-1207900D01*
X4478200Y-1233300D01*
X4476200Y-1233300D01*
X4476200Y-1340846D01*
X4490611Y-1353765D01*
X4520974Y-1339214D01*
X4525609Y-1333965D01*
X4554535Y-1353293D01*
X4590500Y-1360447D01*
X4626465Y-1353293D01*
X4656954Y-1332921D01*
X4677326Y-1302432D01*
X4684480Y-1266467D01*
X4684480Y-1174733D01*
X4677326Y-1138768D01*
X4656954Y-1108279D01*
X4626465Y-1087907D01*
X4590500Y-1080753D01*
X4554535Y-1087907D01*
X4525609Y-1107235D01*
X4520974Y-1101986D01*
X4490611Y-1087435D01*
X4476200Y-1100354D01*
X4450800Y-1100354D01*
X4436390Y-1087435D01*
X4406026Y-1101986D01*
X4400000Y-1108810D01*
X4393974Y-1101986D01*
X4363611Y-1087435D01*
X4349200Y-1100354D01*
X4323800Y-1100354D01*
X4309390Y-1087435D01*
X4279026Y-1101986D01*
X4274391Y-1107235D01*
X4245465Y-1087907D01*
X4209500Y-1080753D01*
X4173535Y-1087907D01*
X4143046Y-1108279D01*
X4133955Y-1121884D01*
X3986886Y-974814D01*
X3968737Y-962688D01*
X4012591Y-950342D01*
X4055702Y-916389D01*
X4082538Y-868523D01*
X4084222Y-859307D01*
X4515778Y-859307D01*
X4517462Y-868523D01*
X4544298Y-916389D01*
X4587409Y-950342D01*
X4640231Y-965213D01*
X4662300Y-949328D01*
X4662300Y-837700D01*
X4687700Y-837700D01*
X4687700Y-949328D01*
X4709769Y-965213D01*
X4762591Y-950342D01*
X4805702Y-916389D01*
X4832538Y-868523D01*
X4834222Y-859307D01*
X4821972Y-837700D01*
X4687700Y-837700D01*
X4662300Y-837700D01*
X4528028Y-837700D01*
X4515778Y-859307D01*
X4084222Y-859307D01*
X4071972Y-837700D01*
X3937700Y-837700D01*
X3937700Y-839700D01*
X3912300Y-839700D01*
X3912300Y-837700D01*
X3778028Y-837700D01*
X3765778Y-859307D01*
X3767462Y-868523D01*
X3794298Y-916389D01*
X3823989Y-939773D01*
X3823377Y-939519D01*
X3780213Y-939481D01*
X3740320Y-955965D01*
X3709772Y-986459D01*
X3693219Y-1026323D01*
X3693181Y-1069487D01*
X3709665Y-1109380D01*
X3717586Y-1117315D01*
X3678613Y-1117281D01*
X3638720Y-1133765D01*
X3608172Y-1164260D01*
X3591619Y-1204123D01*
X3591581Y-1247287D01*
X3596500Y-1259192D01*
X3596500Y-1335256D01*
X3575000Y-1335256D01*
X3551468Y-1339684D01*
X3529856Y-1353591D01*
X3515357Y-1374811D01*
X3510256Y-1400000D01*
X3206720Y-1400000D01*
X3197388Y-1353085D01*
X3166281Y-1306530D01*
X3125830Y-1279501D01*
X3147513Y-1269239D01*
X3185104Y-1227742D01*
X3196439Y-1200375D01*
X3213700Y-1200375D01*
X3213700Y-1284431D01*
X3223367Y-1307770D01*
X3241230Y-1325633D01*
X3264569Y-1335300D01*
X3328625Y-1335300D01*
X3344500Y-1319425D01*
X3344500Y-1184500D01*
X3369900Y-1184500D01*
X3369900Y-1319425D01*
X3385775Y-1335300D01*
X3449831Y-1335300D01*
X3473170Y-1325633D01*
X3491033Y-1307770D01*
X3500700Y-1284431D01*
X3500700Y-1200375D01*
X3484825Y-1184500D01*
X3369900Y-1184500D01*
X3344500Y-1184500D01*
X3229575Y-1184500D01*
X3213700Y-1200375D01*
X3196439Y-1200375D01*
X3201190Y-1188904D01*
X3188991Y-1166700D01*
X3074700Y-1166700D01*
X3074700Y-1168700D01*
X3049300Y-1168700D01*
X3049300Y-1166700D01*
X2935008Y-1166700D01*
X2922810Y-1188904D01*
X2938896Y-1227742D01*
X2976487Y-1269239D01*
X2998170Y-1279501D01*
X2957719Y-1306530D01*
X2942371Y-1329500D01*
X2682916Y-1329500D01*
X2602102Y-1248686D01*
X2602119Y-1229713D01*
X2585635Y-1189820D01*
X2555141Y-1159272D01*
X2515277Y-1142719D01*
X2472113Y-1142681D01*
X2446190Y-1153392D01*
X2435388Y-1099085D01*
X2404281Y-1052530D01*
X2366073Y-1027000D01*
X2404281Y-1001470D01*
X2419629Y-978500D01*
X2521656Y-978500D01*
X2521656Y-1043200D01*
X2526084Y-1066732D01*
X2539991Y-1088344D01*
X2561211Y-1102843D01*
X2586400Y-1107944D01*
X2756400Y-1107944D01*
X2779932Y-1103516D01*
X2801544Y-1089609D01*
X2816043Y-1068389D01*
X2821144Y-1043200D01*
X2821144Y-843200D01*
X2816716Y-819668D01*
X2802809Y-798056D01*
X2781589Y-783557D01*
X2756400Y-778456D01*
X2586400Y-778456D01*
X2562868Y-782884D01*
X2541256Y-796791D01*
X2526757Y-818011D01*
X2526050Y-821500D01*
X2419629Y-821500D01*
X2404281Y-798530D01*
X2357726Y-767423D01*
X2302811Y-756500D01*
X2297189Y-756500D01*
X2242274Y-767423D01*
X2195719Y-798530D01*
X2164612Y-845085D01*
X2153689Y-900000D01*
X2157222Y-917762D01*
X1828492Y-1246492D01*
X1817230Y-1263347D01*
X1808177Y-1265147D01*
X1759558Y-1297633D01*
X1740208Y-1326593D01*
X1558508Y-1144892D01*
X1533041Y-1127876D01*
X1503000Y-1121900D01*
X1038798Y-1121900D01*
X1056380Y-1114635D01*
X1086928Y-1084141D01*
X1103481Y-1044277D01*
X1103519Y-1001113D01*
X1089755Y-967801D01*
X1092671Y-967252D01*
X1103990Y-969544D01*
X1143990Y-969544D01*
X1156171Y-967252D01*
X1167490Y-969544D01*
X1207490Y-969544D01*
X1219671Y-967252D01*
X1230990Y-969544D01*
X1270990Y-969544D01*
X1283171Y-967252D01*
X1294490Y-969544D01*
X1334490Y-969544D01*
X1358022Y-965116D01*
X1379634Y-951209D01*
X1394133Y-929989D01*
X1399234Y-904800D01*
X1399234Y-784800D01*
X1394806Y-761268D01*
X1380899Y-739656D01*
X1359679Y-725157D01*
X1353282Y-723861D01*
X1355308Y-722508D01*
X1402908Y-674908D01*
X1419924Y-649441D01*
X1425900Y-619400D01*
X1425900Y-608544D01*
X1447400Y-608544D01*
X1460637Y-606053D01*
X1444389Y-645183D01*
X1444263Y-789782D01*
X1499482Y-923422D01*
X1601640Y-1025759D01*
X1735183Y-1081211D01*
X1879782Y-1081337D01*
X2013422Y-1026118D01*
X2115759Y-923960D01*
X2171211Y-790417D01*
X2171337Y-645818D01*
X2116118Y-512177D01*
X2013960Y-409841D01*
X1880417Y-354389D01*
X1735818Y-354263D01*
X1602177Y-409482D01*
X1512144Y-499358D01*
X1512144Y-383800D01*
X1507716Y-360268D01*
X1493809Y-338656D01*
X1472589Y-324157D01*
X1447400Y-319056D01*
X1247400Y-319056D01*
X1223868Y-323484D01*
X1202256Y-337391D01*
X1187757Y-358611D01*
X1182656Y-383800D01*
X1182656Y-543800D01*
X1187084Y-567332D01*
X1200991Y-588944D01*
X1213968Y-597811D01*
X1193492Y-611492D01*
X1131982Y-673002D01*
X1131146Y-674253D01*
X1115998Y-651582D01*
X1068912Y-604496D01*
X1070932Y-604116D01*
X1092544Y-590209D01*
X1107043Y-568989D01*
X1112144Y-543800D01*
X1112144Y-383800D01*
X1107716Y-360268D01*
X1093809Y-338656D01*
X1072589Y-324157D01*
X1055812Y-320759D01*
X1063271Y-313300D01*
X2120529Y-313300D01*
X2423614Y-616386D01*
X2457192Y-638822D01*
X2496800Y-646700D01*
X2496801Y-646700D01*
X2522315Y-646700D01*
X2526084Y-666732D01*
X2539991Y-688344D01*
X2561211Y-702843D01*
X2586400Y-707944D01*
X2756400Y-707944D01*
X2779932Y-703516D01*
X2801544Y-689609D01*
X2816043Y-668389D01*
X2820435Y-646700D01*
X2911129Y-646700D01*
X3027277Y-762848D01*
X3004274Y-767423D01*
X2957719Y-798530D01*
X2926612Y-845085D01*
X2915689Y-900000D01*
X2926612Y-954915D01*
X2957719Y-1001470D01*
X2998170Y-1028499D01*
X2976487Y-1038761D01*
X2938896Y-1080258D01*
X2922810Y-1119096D01*
X2935008Y-1141300D01*
X3049300Y-1141300D01*
X3049300Y-1139300D01*
X3074700Y-1139300D01*
X3074700Y-1141300D01*
X3188991Y-1141300D01*
X3201190Y-1119096D01*
X3185104Y-1080258D01*
X3166000Y-1059169D01*
X3213700Y-1059169D01*
X3213700Y-1143225D01*
X3229575Y-1159100D01*
X3344500Y-1159100D01*
X3344500Y-1024175D01*
X3369900Y-1024175D01*
X3369900Y-1159100D01*
X3484825Y-1159100D01*
X3500700Y-1143225D01*
X3500700Y-1059169D01*
X3491033Y-1035830D01*
X3473170Y-1017967D01*
X3449831Y-1008300D01*
X3385775Y-1008300D01*
X3369900Y-1024175D01*
X3344500Y-1024175D01*
X3328625Y-1008300D01*
X3264569Y-1008300D01*
X3241230Y-1017967D01*
X3223367Y-1035830D01*
X3213700Y-1059169D01*
X3166000Y-1059169D01*
X3147513Y-1038761D01*
X3125830Y-1028499D01*
X3166281Y-1001470D01*
X3197388Y-954915D01*
X3208296Y-900075D01*
X3216275Y-892096D01*
X3216884Y-895332D01*
X3230791Y-916944D01*
X3252011Y-931443D01*
X3277200Y-936544D01*
X3437200Y-936544D01*
X3460732Y-932116D01*
X3482344Y-918209D01*
X3496843Y-896989D01*
X3501944Y-871800D01*
X3501944Y-790693D01*
X3765778Y-790693D01*
X3778028Y-812300D01*
X3912300Y-812300D01*
X3912300Y-700672D01*
X3937700Y-700672D01*
X3937700Y-812300D01*
X4071972Y-812300D01*
X4084222Y-790693D01*
X4515778Y-790693D01*
X4528028Y-812300D01*
X4662300Y-812300D01*
X4662300Y-700672D01*
X4687700Y-700672D01*
X4687700Y-812300D01*
X4821972Y-812300D01*
X4834222Y-790693D01*
X4832538Y-781477D01*
X4805702Y-733611D01*
X4762591Y-699658D01*
X4709769Y-684787D01*
X4687700Y-700672D01*
X4662300Y-700672D01*
X4640231Y-684787D01*
X4587409Y-699658D01*
X4544298Y-733611D01*
X4517462Y-781477D01*
X4515778Y-790693D01*
X4084222Y-790693D01*
X4082538Y-781477D01*
X4055702Y-733611D01*
X4012591Y-699658D01*
X3959769Y-684787D01*
X3937700Y-700672D01*
X3912300Y-700672D01*
X3890231Y-684787D01*
X3837409Y-699658D01*
X3794298Y-733611D01*
X3767462Y-781477D01*
X3765778Y-790693D01*
X3501944Y-790693D01*
X3501944Y-671800D01*
X3497516Y-648268D01*
X3483609Y-626656D01*
X3462389Y-612157D01*
X3437200Y-607056D01*
X3277200Y-607056D01*
X3253668Y-611484D01*
X3232056Y-625391D01*
X3217557Y-646611D01*
X3215237Y-658066D01*
X3027186Y-470014D01*
X2993608Y-447578D01*
X2954000Y-439700D01*
X2953999Y-439700D01*
X2820485Y-439700D01*
X2816716Y-419668D01*
X2802809Y-398056D01*
X2781589Y-383557D01*
X2756400Y-378456D01*
X2586400Y-378456D01*
X2562868Y-382884D01*
X2541256Y-396791D01*
X2526757Y-418011D01*
X2525279Y-425308D01*
X2474971Y-375000D01*
X3758297Y-375000D01*
X3768931Y-428461D01*
X3799214Y-473783D01*
X3844536Y-504066D01*
X3897997Y-514700D01*
X3952003Y-514700D01*
X4005464Y-504066D01*
X4050786Y-473783D01*
X4064339Y-453500D01*
X4535661Y-453500D01*
X4549214Y-473783D01*
X4594536Y-504066D01*
X4647997Y-514700D01*
X4702003Y-514700D01*
X4755464Y-504066D01*
X4800786Y-473783D01*
X4831069Y-428461D01*
X4841703Y-375000D01*
X4831069Y-321539D01*
X4800786Y-276217D01*
X4755464Y-245934D01*
X4702003Y-235300D01*
X4647997Y-235300D01*
X4594536Y-245934D01*
X4549214Y-276217D01*
X4535661Y-296500D01*
X4064339Y-296500D01*
X4050786Y-276217D01*
X4005464Y-245934D01*
X3952003Y-235300D01*
X3897997Y-235300D01*
X3844536Y-245934D01*
X3799214Y-276217D01*
X3768931Y-321539D01*
X3758297Y-375000D01*
X2474971Y-375000D01*
X2236586Y-136614D01*
X2203008Y-114178D01*
X2163400Y-106300D01*
X2163400Y-106300D01*
X1020400Y-106300D01*
X1020400Y-106300D01*
X980792Y-114178D01*
X947214Y-136614D01*
X947214Y-136615D01*
X874214Y-209614D01*
X851778Y-243192D01*
X843900Y-282800D01*
X843900Y-282801D01*
X843900Y-319715D01*
X823868Y-323484D01*
X802256Y-337391D01*
X791719Y-352813D01*
X782609Y-338656D01*
X761389Y-324157D01*
X736200Y-319056D01*
X536200Y-319056D01*
X512668Y-323484D01*
X491056Y-337391D01*
X476557Y-358611D01*
X471456Y-383800D01*
X471456Y-543800D01*
X475884Y-567332D01*
X489791Y-588944D01*
X511011Y-603443D01*
X536200Y-608544D01*
X736200Y-608544D01*
X759732Y-604116D01*
X781344Y-590209D01*
X791881Y-574787D01*
X800991Y-588944D01*
X806129Y-592455D01*
X750982Y-647602D01*
X733965Y-673069D01*
X729663Y-694700D01*
X727990Y-703110D01*
X727990Y-720056D01*
X722990Y-720056D01*
X713451Y-721851D01*
X712121Y-721300D01*
X705365Y-721300D01*
X702812Y-723853D01*
X699458Y-724484D01*
X678782Y-737789D01*
X671960Y-730967D01*
X657146Y-724831D01*
X653615Y-721300D01*
X641865Y-721300D01*
X638334Y-724831D01*
X623520Y-730967D01*
X605990Y-748497D01*
X605990Y-737175D01*
X590115Y-721300D01*
X583359Y-721300D01*
X560020Y-730967D01*
X542157Y-748830D01*
X532490Y-772169D01*
X532490Y-816225D01*
X548365Y-832100D01*
X605990Y-832100D01*
X605990Y-826225D01*
X611865Y-832100D01*
X630690Y-832100D01*
X630690Y-857500D01*
X611865Y-857500D01*
X605990Y-863375D01*
X605990Y-857500D01*
X548365Y-857500D01*
X532490Y-873375D01*
X532490Y-917431D01*
X542157Y-940770D01*
X560020Y-958633D01*
X583359Y-968300D01*
X590115Y-968300D01*
X605990Y-952425D01*
X605990Y-941102D01*
X623520Y-958633D01*
X638334Y-964769D01*
X641865Y-968300D01*
X653615Y-968300D01*
X657146Y-964769D01*
X664490Y-961727D01*
X664490Y-1176990D01*
X670466Y-1207031D01*
X687482Y-1232498D01*
X700407Y-1245422D01*
X687020Y-1250967D01*
X679983Y-1258005D01*
X661179Y-1245157D01*
X656531Y-1244216D01*
X653615Y-1241300D01*
X646859Y-1241300D01*
X645307Y-1241943D01*
X635990Y-1240056D01*
X595990Y-1240056D01*
X572458Y-1244484D01*
X550846Y-1258391D01*
X536347Y-1279611D01*
X531246Y-1304800D01*
X531246Y-1424800D01*
X531604Y-1426700D01*
X385400Y-1426700D01*
X355359Y-1432675D01*
X329892Y-1449692D01*
X152092Y-1627492D01*
X135076Y-1652959D01*
X132731Y-1664744D01*
X129100Y-1683000D01*
X129100Y-1699256D01*
X127600Y-1699256D01*
X104068Y-1703684D01*
X82456Y-1717591D01*
X68500Y-1738016D01*
X68500Y-1175000D01*
X115465Y-1175000D01*
X128033Y-1238181D01*
X163822Y-1291743D01*
X217384Y-1327533D01*
X280566Y-1340100D01*
X287035Y-1340100D01*
X350215Y-1327533D01*
X403778Y-1291743D01*
X439567Y-1238181D01*
X452134Y-1175000D01*
X439567Y-1111819D01*
X417103Y-1078200D01*
X421370Y-1076433D01*
X439233Y-1058570D01*
X448900Y-1035231D01*
X448900Y-949575D01*
X433025Y-933700D01*
X296500Y-933700D01*
X296500Y-935700D01*
X271100Y-935700D01*
X271100Y-933700D01*
X134575Y-933700D01*
X118700Y-949575D01*
X118700Y-1035231D01*
X128367Y-1058570D01*
X146230Y-1076433D01*
X150497Y-1078200D01*
X128033Y-1111819D01*
X115465Y-1175000D01*
X68500Y-1175000D01*
X68500Y-806769D01*
X118700Y-806769D01*
X118700Y-892425D01*
X134575Y-908300D01*
X271100Y-908300D01*
X271100Y-771775D01*
X296500Y-771775D01*
X296500Y-908300D01*
X433025Y-908300D01*
X448900Y-892425D01*
X448900Y-806769D01*
X439233Y-783430D01*
X421370Y-765567D01*
X398031Y-755900D01*
X312375Y-755900D01*
X296500Y-771775D01*
X271100Y-771775D01*
X255225Y-755900D01*
X169569Y-755900D01*
X146230Y-765567D01*
X128367Y-783430D01*
X118700Y-806769D01*
X68500Y-806769D01*
X68500Y-492375D01*
X72700Y-492375D01*
X72700Y-556431D01*
X82367Y-579770D01*
X100230Y-597633D01*
X123569Y-607300D01*
X207625Y-607300D01*
X223500Y-591425D01*
X223500Y-476500D01*
X248900Y-476500D01*
X248900Y-591425D01*
X264775Y-607300D01*
X348831Y-607300D01*
X372170Y-597633D01*
X390033Y-579770D01*
X399700Y-556431D01*
X399700Y-492375D01*
X383825Y-476500D01*
X248900Y-476500D01*
X223500Y-476500D01*
X88575Y-476500D01*
X72700Y-492375D01*
X68500Y-492375D01*
X68500Y-371169D01*
X72700Y-371169D01*
X72700Y-435225D01*
X88575Y-451100D01*
X223500Y-451100D01*
X223500Y-336175D01*
X248900Y-336175D01*
X248900Y-451100D01*
X383825Y-451100D01*
X399700Y-435225D01*
X399700Y-371169D01*
X390033Y-347830D01*
X372170Y-329967D01*
X348831Y-320300D01*
X264775Y-320300D01*
X248900Y-336175D01*
X223500Y-336175D01*
X207625Y-320300D01*
X123569Y-320300D01*
X100230Y-329967D01*
X82367Y-347830D01*
X72700Y-371169D01*
X68500Y-371169D01*
X68500Y-68500D01*
X4931500Y-68500D01*
X4931500Y-4931500D01*
X4931500Y-4931500D01*
G37*
X4931500Y-4931500D02*
X68500Y-4931500D01*
X68500Y-4660107D01*
X3762778Y-4660107D01*
X3764462Y-4669323D01*
X3791298Y-4717189D01*
X3834409Y-4751142D01*
X3887231Y-4766013D01*
X3909300Y-4750128D01*
X3909300Y-4638500D01*
X3934700Y-4638500D01*
X3934700Y-4750128D01*
X3956769Y-4766013D01*
X4009591Y-4751142D01*
X4052702Y-4717189D01*
X4079538Y-4669323D01*
X4081222Y-4660107D01*
X4512778Y-4660107D01*
X4514462Y-4669323D01*
X4541298Y-4717189D01*
X4584409Y-4751142D01*
X4637231Y-4766013D01*
X4659300Y-4750128D01*
X4659300Y-4638500D01*
X4684700Y-4638500D01*
X4684700Y-4750128D01*
X4706769Y-4766013D01*
X4759591Y-4751142D01*
X4802702Y-4717189D01*
X4829538Y-4669323D01*
X4831222Y-4660107D01*
X4818972Y-4638500D01*
X4684700Y-4638500D01*
X4659300Y-4638500D01*
X4525028Y-4638500D01*
X4512778Y-4660107D01*
X4081222Y-4660107D01*
X4068972Y-4638500D01*
X3934700Y-4638500D01*
X3909300Y-4638500D01*
X3775028Y-4638500D01*
X3762778Y-4660107D01*
X68500Y-4660107D01*
X68500Y-4591493D01*
X3762778Y-4591493D01*
X3775028Y-4613100D01*
X3909300Y-4613100D01*
X3909300Y-4501472D01*
X3934700Y-4501472D01*
X3934700Y-4613100D01*
X4068972Y-4613100D01*
X4081222Y-4591493D01*
X4512778Y-4591493D01*
X4525028Y-4613100D01*
X4659300Y-4613100D01*
X4659300Y-4501472D01*
X4684700Y-4501472D01*
X4684700Y-4613100D01*
X4818972Y-4613100D01*
X4831222Y-4591493D01*
X4829538Y-4582277D01*
X4802702Y-4534411D01*
X4759591Y-4500458D01*
X4706769Y-4485587D01*
X4684700Y-4501472D01*
X4659300Y-4501472D01*
X4637231Y-4485587D01*
X4584409Y-4500458D01*
X4541298Y-4534411D01*
X4514462Y-4582277D01*
X4512778Y-4591493D01*
X4081222Y-4591493D01*
X4079538Y-4582277D01*
X4052702Y-4534411D01*
X4009591Y-4500458D01*
X3956769Y-4485587D01*
X3934700Y-4501472D01*
X3909300Y-4501472D01*
X3887231Y-4485587D01*
X3834409Y-4500458D01*
X3791298Y-4534411D01*
X3764462Y-4582277D01*
X3762778Y-4591493D01*
X68500Y-4591493D01*
X68500Y-2389422D01*
X81191Y-2409144D01*
X102411Y-2423643D01*
X127600Y-2428744D01*
X129100Y-2428744D01*
X129100Y-2446255D01*
X115672Y-2459660D01*
X99119Y-2499523D01*
X99081Y-2542687D01*
X115565Y-2582580D01*
X146060Y-2613128D01*
X185923Y-2629681D01*
X229087Y-2629719D01*
X268980Y-2613235D01*
X299528Y-2582741D01*
X316081Y-2542877D01*
X316119Y-2499713D01*
X299635Y-2459820D01*
X286100Y-2446261D01*
X286100Y-2428744D01*
X287600Y-2428744D01*
X311132Y-2424316D01*
X332744Y-2410409D01*
X347243Y-2389189D01*
X352344Y-2364000D01*
X352344Y-2164000D01*
X347916Y-2140468D01*
X334009Y-2118856D01*
X312789Y-2104357D01*
X287600Y-2099256D01*
X127600Y-2099256D01*
X104068Y-2103684D01*
X82456Y-2117591D01*
X68500Y-2138016D01*
X68500Y-1989422D01*
X81191Y-2009144D01*
X102411Y-2023643D01*
X127600Y-2028744D01*
X287600Y-2028744D01*
X311132Y-2024316D01*
X332744Y-2010409D01*
X347243Y-1989189D01*
X352344Y-1964000D01*
X352344Y-1764000D01*
X347916Y-1740468D01*
X334009Y-1718856D01*
X312789Y-1704357D01*
X299874Y-1701742D01*
X417916Y-1583700D01*
X588600Y-1583700D01*
X612348Y-1578976D01*
X559732Y-1631592D01*
X542716Y-1657059D01*
X540472Y-1668340D01*
X536740Y-1687100D01*
X536740Y-1690056D01*
X535240Y-1690056D01*
X511708Y-1694484D01*
X490096Y-1708391D01*
X475597Y-1729611D01*
X470496Y-1754800D01*
X470496Y-1954800D01*
X474924Y-1978332D01*
X488831Y-1999944D01*
X510051Y-2014443D01*
X535240Y-2019544D01*
X695240Y-2019544D01*
X718772Y-2015116D01*
X740384Y-2001209D01*
X754883Y-1979989D01*
X759984Y-1954800D01*
X759984Y-1754800D01*
X755556Y-1731268D01*
X741649Y-1709656D01*
X720429Y-1695157D01*
X718574Y-1694781D01*
X724156Y-1689200D01*
X780540Y-1689200D01*
X810581Y-1683224D01*
X836048Y-1666208D01*
X836740Y-1665516D01*
X836740Y-1690056D01*
X830240Y-1690056D01*
X806708Y-1694484D01*
X785096Y-1708391D01*
X770597Y-1729611D01*
X765496Y-1754800D01*
X765496Y-1954800D01*
X769924Y-1978332D01*
X783831Y-1999944D01*
X805051Y-2014443D01*
X830240Y-2019544D01*
X1000240Y-2019544D01*
X1023772Y-2015116D01*
X1045384Y-2001209D01*
X1059883Y-1979989D01*
X1064984Y-1954800D01*
X1064984Y-1754800D01*
X1060556Y-1731268D01*
X1046649Y-1709656D01*
X1025429Y-1695157D01*
X1000240Y-1690056D01*
X993740Y-1690056D01*
X993740Y-1686316D01*
X1028956Y-1651100D01*
X1110740Y-1651100D01*
X1140781Y-1645124D01*
X1166248Y-1628108D01*
X1172490Y-1621866D01*
X1172490Y-1690056D01*
X1130240Y-1690056D01*
X1106708Y-1694484D01*
X1085096Y-1708391D01*
X1070597Y-1729611D01*
X1065496Y-1754800D01*
X1065496Y-1954800D01*
X1069924Y-1978332D01*
X1083831Y-1999944D01*
X1105051Y-2014443D01*
X1130240Y-2019544D01*
X1300240Y-2019544D01*
X1323772Y-2015116D01*
X1345384Y-2001209D01*
X1359883Y-1979989D01*
X1364984Y-1954800D01*
X1364984Y-1754800D01*
X1360556Y-1731268D01*
X1346649Y-1709656D01*
X1329490Y-1697932D01*
X1329490Y-1489544D01*
X1334490Y-1489544D01*
X1358022Y-1485116D01*
X1379634Y-1471209D01*
X1390472Y-1455348D01*
X1436740Y-1501616D01*
X1436740Y-1690056D01*
X1430240Y-1690056D01*
X1406708Y-1694484D01*
X1385096Y-1708391D01*
X1370597Y-1729611D01*
X1365496Y-1754800D01*
X1365496Y-1954800D01*
X1369924Y-1978332D01*
X1383831Y-1999944D01*
X1405051Y-2014443D01*
X1430240Y-2019544D01*
X1600240Y-2019544D01*
X1623772Y-2015116D01*
X1627700Y-2012588D01*
X1627700Y-2064000D01*
X1633675Y-2094041D01*
X1641976Y-2106463D01*
X1625429Y-2095157D01*
X1600240Y-2090056D01*
X1430240Y-2090056D01*
X1406708Y-2094484D01*
X1385096Y-2108391D01*
X1370597Y-2129611D01*
X1365496Y-2154800D01*
X1365496Y-2354800D01*
X1369924Y-2378332D01*
X1383831Y-2399944D01*
X1405051Y-2414443D01*
X1426560Y-2418799D01*
X1411072Y-2434260D01*
X1394519Y-2474123D01*
X1394481Y-2517287D01*
X1410965Y-2557180D01*
X1441459Y-2587728D01*
X1464036Y-2597103D01*
X1462656Y-2597991D01*
X1448157Y-2619211D01*
X1443056Y-2644400D01*
X1443056Y-2804400D01*
X1447484Y-2827932D01*
X1461391Y-2849544D01*
X1467181Y-2853500D01*
X1432560Y-2853500D01*
X1402519Y-2859475D01*
X1377052Y-2876492D01*
X1210070Y-3043474D01*
X1202318Y-3031427D01*
X1181098Y-3016928D01*
X1155909Y-3011827D01*
X595839Y-3011827D01*
X572307Y-3016255D01*
X550695Y-3030162D01*
X540100Y-3045668D01*
X540100Y-3036316D01*
X898108Y-2678308D01*
X915124Y-2652841D01*
X921100Y-2622800D01*
X921100Y-2545345D01*
X922781Y-2543667D01*
X928365Y-2557180D01*
X958859Y-2587728D01*
X998723Y-2604281D01*
X1041887Y-2604319D01*
X1081780Y-2587835D01*
X1112328Y-2557341D01*
X1115949Y-2548620D01*
X1123205Y-2566180D01*
X1153700Y-2596728D01*
X1193563Y-2613281D01*
X1236727Y-2613319D01*
X1276620Y-2596835D01*
X1307168Y-2566341D01*
X1323721Y-2526477D01*
X1323759Y-2483313D01*
X1307275Y-2443420D01*
X1293740Y-2429861D01*
X1293740Y-2419544D01*
X1300240Y-2419544D01*
X1323772Y-2415116D01*
X1345384Y-2401209D01*
X1359883Y-2379989D01*
X1364984Y-2354800D01*
X1364984Y-2154800D01*
X1360556Y-2131268D01*
X1346649Y-2109656D01*
X1325429Y-2095157D01*
X1300240Y-2090056D01*
X1130240Y-2090056D01*
X1106708Y-2094484D01*
X1085096Y-2108391D01*
X1070597Y-2129611D01*
X1065496Y-2154800D01*
X1065496Y-2354800D01*
X1069924Y-2378332D01*
X1083831Y-2399944D01*
X1105051Y-2414443D01*
X1130240Y-2419544D01*
X1136740Y-2419544D01*
X1136740Y-2429855D01*
X1123312Y-2443260D01*
X1119691Y-2451980D01*
X1112435Y-2434420D01*
X1081941Y-2403872D01*
X1052046Y-2391459D01*
X1059883Y-2379989D01*
X1064984Y-2354800D01*
X1064984Y-2154800D01*
X1060556Y-2131268D01*
X1046649Y-2109656D01*
X1025429Y-2095157D01*
X1000240Y-2090056D01*
X830240Y-2090056D01*
X806708Y-2094484D01*
X785096Y-2108391D01*
X770597Y-2129611D01*
X765496Y-2154800D01*
X765496Y-2354800D01*
X769924Y-2378332D01*
X774355Y-2385218D01*
X750672Y-2408860D01*
X734371Y-2448116D01*
X709207Y-2448094D01*
X707275Y-2443420D01*
X693740Y-2429861D01*
X693740Y-2419544D01*
X695240Y-2419544D01*
X718772Y-2415116D01*
X740384Y-2401209D01*
X754883Y-2379989D01*
X759984Y-2354800D01*
X759984Y-2154800D01*
X755556Y-2131268D01*
X741649Y-2109656D01*
X720429Y-2095157D01*
X695240Y-2090056D01*
X535240Y-2090056D01*
X511708Y-2094484D01*
X490096Y-2108391D01*
X475597Y-2129611D01*
X470496Y-2154800D01*
X470496Y-2354800D01*
X474924Y-2378332D01*
X488831Y-2399944D01*
X510051Y-2414443D01*
X535240Y-2419544D01*
X536740Y-2419544D01*
X536740Y-2429855D01*
X523312Y-2443260D01*
X506759Y-2483123D01*
X506747Y-2496840D01*
X205882Y-2767655D01*
X204631Y-2769330D01*
X202892Y-2770492D01*
X195507Y-2781545D01*
X187552Y-2792194D01*
X187037Y-2794221D01*
X185875Y-2795959D01*
X183282Y-2808997D01*
X180008Y-2821879D01*
X180308Y-2823949D01*
X179900Y-2826000D01*
X179900Y-3418142D01*
X138422Y-3445857D01*
X102633Y-3499419D01*
X90065Y-3562600D01*
X102633Y-3625781D01*
X125350Y-3659779D01*
X111656Y-3668591D01*
X97157Y-3689811D01*
X92056Y-3715000D01*
X92056Y-3918200D01*
X96484Y-3941732D01*
X110391Y-3963344D01*
X131611Y-3977843D01*
X156800Y-3982944D01*
X360000Y-3982944D01*
X383532Y-3978516D01*
X405144Y-3964609D01*
X419643Y-3943389D01*
X424744Y-3918200D01*
X424744Y-3715000D01*
X420316Y-3691468D01*
X406409Y-3669856D01*
X391516Y-3659680D01*
X414167Y-3625781D01*
X426734Y-3562600D01*
X420415Y-3530831D01*
X716520Y-3826936D01*
X708719Y-3845723D01*
X708681Y-3888887D01*
X725165Y-3928780D01*
X755659Y-3959328D01*
X795523Y-3975881D01*
X811995Y-3975895D01*
X991926Y-4165297D01*
X973513Y-4165281D01*
X933620Y-4181765D01*
X903072Y-4212260D01*
X886519Y-4252123D01*
X886481Y-4295287D01*
X902965Y-4335180D01*
X933459Y-4365728D01*
X973323Y-4382281D01*
X992482Y-4382298D01*
X1142692Y-4532508D01*
X1168159Y-4549525D01*
X1198200Y-4555500D01*
X3179400Y-4555500D01*
X3209441Y-4549525D01*
X3234908Y-4532508D01*
X3438108Y-4329308D01*
X3455124Y-4303841D01*
X3461100Y-4273800D01*
X3461100Y-3975074D01*
X3543840Y-4057959D01*
X3677383Y-4113411D01*
X3771841Y-4113493D01*
X3765931Y-4122339D01*
X3755297Y-4175800D01*
X3765931Y-4229261D01*
X3796214Y-4274583D01*
X3841536Y-4304866D01*
X3894997Y-4315500D01*
X3949003Y-4315500D01*
X4002464Y-4304866D01*
X4047786Y-4274583D01*
X4061339Y-4254300D01*
X4532661Y-4254300D01*
X4546214Y-4274583D01*
X4591536Y-4304866D01*
X4644997Y-4315500D01*
X4699003Y-4315500D01*
X4752464Y-4304866D01*
X4797786Y-4274583D01*
X4828069Y-4229261D01*
X4838703Y-4175800D01*
X4828069Y-4122339D01*
X4797786Y-4077017D01*
X4752464Y-4046734D01*
X4699003Y-4036100D01*
X4644997Y-4036100D01*
X4591536Y-4046734D01*
X4546214Y-4077017D01*
X4532661Y-4097300D01*
X4061339Y-4097300D01*
X4047786Y-4077017D01*
X4002464Y-4046734D01*
X3973081Y-4040889D01*
X4057959Y-3956160D01*
X4113411Y-3822617D01*
X4113537Y-3678018D01*
X4058318Y-3544377D01*
X4035234Y-3521253D01*
X4475708Y-3521253D01*
X4494736Y-3555727D01*
X4582859Y-3590896D01*
X4677732Y-3589664D01*
X4759664Y-3555727D01*
X4778692Y-3521253D01*
X4627200Y-3369760D01*
X4475708Y-3521253D01*
X4035234Y-3521253D01*
X3956160Y-3442041D01*
X3822617Y-3386589D01*
X3678018Y-3386463D01*
X3660094Y-3393869D01*
X3663143Y-3386509D01*
X3663143Y-3307459D01*
X4388104Y-3307459D01*
X4389336Y-3402332D01*
X4423273Y-3484264D01*
X4457747Y-3503292D01*
X4609240Y-3351800D01*
X4645161Y-3351800D01*
X4796653Y-3503292D01*
X4831127Y-3484264D01*
X4866296Y-3396141D01*
X4865064Y-3301268D01*
X4831127Y-3219336D01*
X4796653Y-3200308D01*
X4645161Y-3351800D01*
X4609240Y-3351800D01*
X4457747Y-3200308D01*
X4423273Y-3219336D01*
X4388104Y-3307459D01*
X3663143Y-3307459D01*
X3663143Y-3244973D01*
X3647268Y-3229098D01*
X3522300Y-3229098D01*
X3522300Y-3421503D01*
X3538175Y-3437378D01*
X3554794Y-3437378D01*
X3544377Y-3441682D01*
X3442041Y-3543840D01*
X3393575Y-3660559D01*
X3202455Y-3469440D01*
X3208311Y-3440000D01*
X3197388Y-3385085D01*
X3166281Y-3338530D01*
X3125830Y-3311501D01*
X3147513Y-3301239D01*
X3185104Y-3259742D01*
X3191221Y-3244973D01*
X3356057Y-3244973D01*
X3356057Y-3386509D01*
X3365724Y-3409848D01*
X3383587Y-3427711D01*
X3406926Y-3437378D01*
X3481025Y-3437378D01*
X3496900Y-3421503D01*
X3496900Y-3229098D01*
X3371932Y-3229098D01*
X3356057Y-3244973D01*
X3191221Y-3244973D01*
X3201190Y-3220904D01*
X3188991Y-3198700D01*
X3074700Y-3198700D01*
X3074700Y-3200700D01*
X3049300Y-3200700D01*
X3049300Y-3198700D01*
X2935008Y-3198700D01*
X2922810Y-3220904D01*
X2938896Y-3259742D01*
X2976487Y-3301239D01*
X2998170Y-3311501D01*
X2957719Y-3338530D01*
X2926612Y-3385085D01*
X2915689Y-3440000D01*
X2926612Y-3494915D01*
X2957719Y-3541470D01*
X2995927Y-3567000D01*
X2957719Y-3592530D01*
X2926612Y-3639085D01*
X2915689Y-3694000D01*
X2926612Y-3748915D01*
X2957719Y-3795470D01*
X2995927Y-3821000D01*
X2957719Y-3846530D01*
X2926612Y-3893085D01*
X2915689Y-3948000D01*
X2926612Y-4002915D01*
X2957719Y-4049470D01*
X2995927Y-4075000D01*
X2960757Y-4098500D01*
X2744071Y-4098500D01*
X2736800Y-4091229D01*
X2736800Y-4088022D01*
X2736832Y-4088016D01*
X2758444Y-4074109D01*
X2772943Y-4052889D01*
X2778044Y-4027700D01*
X2778044Y-3827700D01*
X2773616Y-3804168D01*
X2759709Y-3782556D01*
X2738489Y-3768057D01*
X2713300Y-3762956D01*
X2553300Y-3762956D01*
X2529768Y-3767384D01*
X2508156Y-3781291D01*
X2493657Y-3802511D01*
X2488556Y-3827700D01*
X2488556Y-3844500D01*
X2401243Y-3844500D01*
X2366073Y-3821000D01*
X2404281Y-3795470D01*
X2435388Y-3748915D01*
X2446311Y-3694000D01*
X2435388Y-3639085D01*
X2404281Y-3592530D01*
X2366073Y-3567000D01*
X2382124Y-3556275D01*
X2489800Y-3556275D01*
X2489800Y-3640331D01*
X2499467Y-3663670D01*
X2517330Y-3681533D01*
X2540669Y-3691200D01*
X2604725Y-3691200D01*
X2620600Y-3675325D01*
X2620600Y-3540400D01*
X2646000Y-3540400D01*
X2646000Y-3675325D01*
X2661875Y-3691200D01*
X2725931Y-3691200D01*
X2749270Y-3681533D01*
X2767133Y-3663670D01*
X2776800Y-3640331D01*
X2776800Y-3556275D01*
X2760925Y-3540400D01*
X2646000Y-3540400D01*
X2620600Y-3540400D01*
X2505675Y-3540400D01*
X2489800Y-3556275D01*
X2382124Y-3556275D01*
X2404281Y-3541470D01*
X2435388Y-3494915D01*
X2446311Y-3440000D01*
X2441352Y-3415069D01*
X2489800Y-3415069D01*
X2489800Y-3499125D01*
X2505675Y-3515000D01*
X2620600Y-3515000D01*
X2620600Y-3380075D01*
X2646000Y-3380075D01*
X2646000Y-3515000D01*
X2760925Y-3515000D01*
X2776800Y-3499125D01*
X2776800Y-3415069D01*
X2767133Y-3391730D01*
X2749270Y-3373867D01*
X2725931Y-3364200D01*
X2661875Y-3364200D01*
X2646000Y-3380075D01*
X2620600Y-3380075D01*
X2604725Y-3364200D01*
X2540669Y-3364200D01*
X2517330Y-3373867D01*
X2499467Y-3391730D01*
X2489800Y-3415069D01*
X2441352Y-3415069D01*
X2435388Y-3385085D01*
X2404281Y-3338530D01*
X2366073Y-3313000D01*
X2404281Y-3287470D01*
X2435388Y-3240915D01*
X2446311Y-3186000D01*
X2435388Y-3131085D01*
X2404281Y-3084530D01*
X2366073Y-3059000D01*
X2404281Y-3033470D01*
X2435388Y-2986915D01*
X2446311Y-2932000D01*
X2435388Y-2877085D01*
X2404281Y-2830530D01*
X2363830Y-2803501D01*
X2385513Y-2793239D01*
X2423104Y-2751742D01*
X2439190Y-2712904D01*
X2426992Y-2690700D01*
X2312700Y-2690700D01*
X2312700Y-2692700D01*
X2287300Y-2692700D01*
X2287300Y-2690700D01*
X2285300Y-2690700D01*
X2285300Y-2665300D01*
X2287300Y-2665300D01*
X2287300Y-2663300D01*
X2312700Y-2663300D01*
X2312700Y-2665300D01*
X2426992Y-2665300D01*
X2439190Y-2643096D01*
X2423104Y-2604258D01*
X2385513Y-2562761D01*
X2363830Y-2552499D01*
X2404281Y-2525470D01*
X2419629Y-2502500D01*
X2428240Y-2502500D01*
X2458281Y-2496525D01*
X2483748Y-2479508D01*
X2554188Y-2409068D01*
X2571205Y-2383601D01*
X2577180Y-2353560D01*
X2577180Y-1733800D01*
X2576676Y-1731268D01*
X2571205Y-1703759D01*
X2554188Y-1678292D01*
X2482388Y-1606492D01*
X2456921Y-1589475D01*
X2426880Y-1583500D01*
X2419629Y-1583500D01*
X2404281Y-1560530D01*
X2366073Y-1535000D01*
X2404281Y-1509470D01*
X2435388Y-1462915D01*
X2446311Y-1408000D01*
X2435388Y-1353085D01*
X2422006Y-1333057D01*
X2432060Y-1343128D01*
X2471923Y-1359681D01*
X2491082Y-1359698D01*
X2594892Y-1463508D01*
X2620359Y-1480524D01*
X2650400Y-1486500D01*
X2942371Y-1486500D01*
X2957719Y-1509470D01*
X2983500Y-1526696D01*
X2983500Y-1543304D01*
X2957719Y-1560530D01*
X2926612Y-1607085D01*
X2915689Y-1662000D01*
X2926612Y-1716915D01*
X2957719Y-1763470D01*
X2995927Y-1789000D01*
X2961931Y-1811715D01*
X2754502Y-1604286D01*
X2754519Y-1585313D01*
X2738035Y-1545420D01*
X2707541Y-1514872D01*
X2667677Y-1498319D01*
X2624513Y-1498281D01*
X2584620Y-1514765D01*
X2554072Y-1545259D01*
X2537519Y-1585123D01*
X2537481Y-1628287D01*
X2553965Y-1668180D01*
X2584460Y-1698728D01*
X2624323Y-1715281D01*
X2643482Y-1715298D01*
X2899692Y-1971508D01*
X2925159Y-1988524D01*
X2940404Y-1991557D01*
X2957719Y-2017470D01*
X2995927Y-2043000D01*
X2957719Y-2068530D01*
X2926612Y-2115085D01*
X2915689Y-2170000D01*
X2926612Y-2224915D01*
X2957719Y-2271470D01*
X2995927Y-2297000D01*
X2957719Y-2322530D01*
X2926612Y-2369085D01*
X2915689Y-2424000D01*
X2926612Y-2478915D01*
X2957719Y-2525470D01*
X2995927Y-2551000D01*
X2957719Y-2576530D01*
X2926612Y-2623085D01*
X2915689Y-2678000D01*
X2926612Y-2732915D01*
X2957719Y-2779470D01*
X2995927Y-2805000D01*
X2957719Y-2830530D01*
X2926612Y-2877085D01*
X2915689Y-2932000D01*
X2926612Y-2986915D01*
X2957719Y-3033470D01*
X2998170Y-3060499D01*
X2976487Y-3070761D01*
X2938896Y-3112258D01*
X2922810Y-3151096D01*
X2935008Y-3173300D01*
X3049300Y-3173300D01*
X3049300Y-3171300D01*
X3074700Y-3171300D01*
X3074700Y-3173300D01*
X3188991Y-3173300D01*
X3201190Y-3151096D01*
X3185104Y-3112258D01*
X3147513Y-3070761D01*
X3125830Y-3060499D01*
X3163243Y-3035500D01*
X3225799Y-3035500D01*
X3225800Y-3035500D01*
X3265408Y-3027621D01*
X3298986Y-3005186D01*
X3354920Y-2949251D01*
X3359241Y-2972214D01*
X3373148Y-2993826D01*
X3387347Y-3003528D01*
X3383587Y-3005085D01*
X3365724Y-3022948D01*
X3356057Y-3046287D01*
X3356057Y-3187823D01*
X3371932Y-3203698D01*
X3496900Y-3203698D01*
X3496900Y-3201698D01*
X3522300Y-3201698D01*
X3522300Y-3203698D01*
X3647268Y-3203698D01*
X3663143Y-3187823D01*
X3663143Y-3182347D01*
X4475708Y-3182347D01*
X4627200Y-3333839D01*
X4778692Y-3182347D01*
X4759664Y-3147873D01*
X4671541Y-3112704D01*
X4576668Y-3113936D01*
X4494736Y-3147873D01*
X4475708Y-3182347D01*
X3663143Y-3182347D01*
X3663143Y-3046287D01*
X3653476Y-3022948D01*
X3635613Y-3005085D01*
X3631745Y-3003483D01*
X3644787Y-2995091D01*
X3659286Y-2973871D01*
X3664387Y-2948682D01*
X3664387Y-2633722D01*
X3659959Y-2610190D01*
X3646052Y-2588578D01*
X3624832Y-2574079D01*
X3599643Y-2568978D01*
X3419557Y-2568978D01*
X3396025Y-2573406D01*
X3374413Y-2587313D01*
X3359914Y-2608533D01*
X3354813Y-2633722D01*
X3354813Y-2690046D01*
X3326990Y-2695581D01*
X3318430Y-2701300D01*
X3293412Y-2718016D01*
X3293412Y-2718017D01*
X3182929Y-2828500D01*
X3163243Y-2828500D01*
X3128072Y-2805000D01*
X3166281Y-2779470D01*
X3197388Y-2732915D01*
X3208311Y-2678000D01*
X3197388Y-2623085D01*
X3166281Y-2576530D01*
X3128072Y-2551000D01*
X3166281Y-2525470D01*
X3197388Y-2478915D01*
X3208311Y-2424000D01*
X3197388Y-2369085D01*
X3166281Y-2322530D01*
X3128072Y-2297000D01*
X3166281Y-2271470D01*
X3197388Y-2224915D01*
X3206888Y-2177157D01*
X3481178Y-2177157D01*
X3481178Y-2357243D01*
X3485606Y-2380775D01*
X3499513Y-2402387D01*
X3520733Y-2416886D01*
X3545922Y-2421987D01*
X3599902Y-2421987D01*
X3599902Y-2435602D01*
X3599902Y-2435602D01*
X3607780Y-2475210D01*
X3630216Y-2508788D01*
X3819414Y-2697985D01*
X3819414Y-2697986D01*
X3852992Y-2720422D01*
X3892600Y-2728300D01*
X3892600Y-2728300D01*
X4062126Y-2728300D01*
X4076963Y-2743163D01*
X4092923Y-2749790D01*
X4077170Y-2756299D01*
X4037837Y-2795563D01*
X4016524Y-2846890D01*
X4016476Y-2902466D01*
X4037699Y-2953830D01*
X4076963Y-2993163D01*
X4128290Y-3014476D01*
X4183866Y-3014524D01*
X4235230Y-2993301D01*
X4256202Y-2972366D01*
X4276963Y-2993163D01*
X4328290Y-3014476D01*
X4383866Y-3014524D01*
X4435230Y-2993301D01*
X4474563Y-2954037D01*
X4495876Y-2902710D01*
X4495924Y-2847134D01*
X4474701Y-2795770D01*
X4435437Y-2756437D01*
X4421050Y-2750463D01*
X4429314Y-2747040D01*
X4436261Y-2722821D01*
X4356200Y-2642761D01*
X4276139Y-2722821D01*
X4283086Y-2747040D01*
X4291937Y-2750197D01*
X4277170Y-2756299D01*
X4256198Y-2777234D01*
X4235437Y-2756437D01*
X4219477Y-2749810D01*
X4235230Y-2743301D01*
X4274563Y-2704037D01*
X4285612Y-2677427D01*
X4338240Y-2624800D01*
X4374161Y-2624800D01*
X4454221Y-2704861D01*
X4478440Y-2697914D01*
X4497114Y-2645570D01*
X4494336Y-2590063D01*
X4478440Y-2551686D01*
X4454221Y-2544739D01*
X4374161Y-2624800D01*
X4338240Y-2624800D01*
X4285609Y-2572170D01*
X4274701Y-2545770D01*
X4255743Y-2526779D01*
X4276139Y-2526779D01*
X4356200Y-2606840D01*
X4436261Y-2526779D01*
X4429314Y-2502560D01*
X4376970Y-2483886D01*
X4321463Y-2486664D01*
X4283086Y-2502560D01*
X4276139Y-2526779D01*
X4255743Y-2526779D01*
X4235437Y-2506437D01*
X4184110Y-2485124D01*
X4128534Y-2485076D01*
X4077170Y-2506299D01*
X4062142Y-2521300D01*
X3935471Y-2521300D01*
X3836158Y-2421987D01*
X3860882Y-2421987D01*
X3884414Y-2417559D01*
X3906026Y-2403652D01*
X3915728Y-2389453D01*
X3917285Y-2393213D01*
X3935148Y-2411076D01*
X3958487Y-2420743D01*
X4100023Y-2420743D01*
X4115898Y-2404868D01*
X4115898Y-2279900D01*
X4141298Y-2279900D01*
X4141298Y-2404868D01*
X4157173Y-2420743D01*
X4298709Y-2420743D01*
X4322048Y-2411076D01*
X4339911Y-2393213D01*
X4349578Y-2369874D01*
X4349578Y-2317253D01*
X4475708Y-2317253D01*
X4494736Y-2351727D01*
X4582859Y-2386896D01*
X4677732Y-2385664D01*
X4759664Y-2351727D01*
X4778692Y-2317253D01*
X4627200Y-2165761D01*
X4475708Y-2317253D01*
X4349578Y-2317253D01*
X4349578Y-2295775D01*
X4333703Y-2279900D01*
X4141298Y-2279900D01*
X4115898Y-2279900D01*
X4113898Y-2279900D01*
X4113898Y-2254500D01*
X4115898Y-2254500D01*
X4115898Y-2129532D01*
X4141298Y-2129532D01*
X4141298Y-2254500D01*
X4333703Y-2254500D01*
X4349578Y-2238625D01*
X4349578Y-2164526D01*
X4339911Y-2141187D01*
X4322048Y-2123324D01*
X4298709Y-2113657D01*
X4157173Y-2113657D01*
X4141298Y-2129532D01*
X4115898Y-2129532D01*
X4100023Y-2113657D01*
X3958487Y-2113657D01*
X3935148Y-2123324D01*
X3917285Y-2141187D01*
X3915683Y-2145055D01*
X3907291Y-2132013D01*
X3886071Y-2117514D01*
X3860882Y-2112413D01*
X3803500Y-2112413D01*
X3803500Y-2103459D01*
X4388104Y-2103459D01*
X4389336Y-2198332D01*
X4423273Y-2280264D01*
X4457747Y-2299292D01*
X4609240Y-2147800D01*
X4645161Y-2147800D01*
X4796653Y-2299292D01*
X4831127Y-2280264D01*
X4866296Y-2192141D01*
X4865064Y-2097268D01*
X4831127Y-2015336D01*
X4796653Y-1996308D01*
X4645161Y-2147800D01*
X4609240Y-2147800D01*
X4457747Y-1996308D01*
X4423273Y-2015336D01*
X4388104Y-2103459D01*
X3803500Y-2103459D01*
X3803500Y-2064744D01*
X3825000Y-2064744D01*
X3848532Y-2060316D01*
X3870144Y-2046409D01*
X3884643Y-2025189D01*
X3889744Y-2000000D01*
X3889744Y-1978347D01*
X4475708Y-1978347D01*
X4627200Y-2129840D01*
X4778692Y-1978347D01*
X4759664Y-1943873D01*
X4671541Y-1908704D01*
X4624389Y-1909316D01*
X4647974Y-1898014D01*
X4672466Y-1870278D01*
X4684480Y-1835280D01*
X4684480Y-1792100D01*
X4603200Y-1792100D01*
X4603200Y-1794100D01*
X4577800Y-1794100D01*
X4577800Y-1792100D01*
X4476200Y-1792100D01*
X4476200Y-1899646D01*
X4490611Y-1912565D01*
X4520974Y-1898014D01*
X4527000Y-1891190D01*
X4533026Y-1898014D01*
X4563390Y-1912565D01*
X4577800Y-1899646D01*
X4577800Y-1909921D01*
X4576668Y-1909936D01*
X4494736Y-1943873D01*
X4475708Y-1978347D01*
X3889744Y-1978347D01*
X3889744Y-1800000D01*
X3885316Y-1776468D01*
X3871409Y-1754856D01*
X3850189Y-1740357D01*
X3825000Y-1735256D01*
X3575000Y-1735256D01*
X3551468Y-1739684D01*
X3529856Y-1753591D01*
X3515357Y-1774811D01*
X3510256Y-1800000D01*
X3510256Y-2000000D01*
X3514684Y-2023532D01*
X3528591Y-2045144D01*
X3549811Y-2059643D01*
X3575000Y-2064744D01*
X3596500Y-2064744D01*
X3596500Y-2112413D01*
X3545922Y-2112413D01*
X3522390Y-2116841D01*
X3500778Y-2130748D01*
X3486279Y-2151968D01*
X3481178Y-2177157D01*
X3206888Y-2177157D01*
X3208311Y-2170000D01*
X3197388Y-2115085D01*
X3166281Y-2068530D01*
X3128072Y-2043000D01*
X3166281Y-2017470D01*
X3197388Y-1970915D01*
X3208311Y-1916000D01*
X3197388Y-1861085D01*
X3166281Y-1814530D01*
X3128072Y-1789000D01*
X3166281Y-1763470D01*
X3197388Y-1716915D01*
X3208311Y-1662000D01*
X3197388Y-1607085D01*
X3166281Y-1560530D01*
X3140500Y-1543304D01*
X3140500Y-1526696D01*
X3166281Y-1509470D01*
X3197388Y-1462915D01*
X3208311Y-1408000D01*
X3206720Y-1400000D01*
X3510256Y-1400000D01*
X3510256Y-1600000D01*
X3514684Y-1623532D01*
X3528591Y-1645144D01*
X3549811Y-1659643D01*
X3575000Y-1664744D01*
X3825000Y-1664744D01*
X3848532Y-1660316D01*
X3870144Y-1646409D01*
X3884643Y-1625189D01*
X3889744Y-1600000D01*
X3889744Y-1578500D01*
X4056084Y-1578500D01*
X4131000Y-1653416D01*
X4131000Y-1685107D01*
X4122674Y-1697568D01*
X4115520Y-1733533D01*
X4115520Y-1825267D01*
X4122674Y-1861232D01*
X4143046Y-1891721D01*
X4173535Y-1912093D01*
X4209500Y-1919247D01*
X4245465Y-1912093D01*
X4274391Y-1892765D01*
X4279026Y-1898014D01*
X4309390Y-1912565D01*
X4323800Y-1899646D01*
X4323800Y-1792100D01*
X4349200Y-1792100D01*
X4349200Y-1899646D01*
X4363611Y-1912565D01*
X4393974Y-1898014D01*
X4400000Y-1891190D01*
X4406026Y-1898014D01*
X4436390Y-1912565D01*
X4450800Y-1899646D01*
X4450800Y-1792100D01*
X4349200Y-1792100D01*
X4323800Y-1792100D01*
X4321800Y-1792100D01*
X4321800Y-1766700D01*
X4323800Y-1766700D01*
X4323800Y-1659154D01*
X4349200Y-1659154D01*
X4349200Y-1766700D01*
X4450800Y-1766700D01*
X4450800Y-1659154D01*
X4476200Y-1659154D01*
X4476200Y-1766700D01*
X4577800Y-1766700D01*
X4577800Y-1659154D01*
X4603200Y-1659154D01*
X4603200Y-1766700D01*
X4684480Y-1766700D01*
X4684480Y-1723520D01*
X4672466Y-1688522D01*
X4647974Y-1660786D01*
X4617611Y-1646235D01*
X4603200Y-1659154D01*
X4577800Y-1659154D01*
X4563390Y-1646235D01*
X4533026Y-1660786D01*
X4527000Y-1667610D01*
X4520974Y-1660786D01*
X4490611Y-1646235D01*
X4476200Y-1659154D01*
X4450800Y-1659154D01*
X4436390Y-1646235D01*
X4406026Y-1660786D01*
X4400000Y-1667610D01*
X4393974Y-1660786D01*
X4363611Y-1646235D01*
X4349200Y-1659154D01*
X4323800Y-1659154D01*
X4309390Y-1646235D01*
X4288000Y-1656485D01*
X4288000Y-1620900D01*
X4284368Y-1602641D01*
X4282025Y-1590859D01*
X4265008Y-1565392D01*
X4144108Y-1444492D01*
X4118641Y-1427475D01*
X4088600Y-1421500D01*
X3889744Y-1421500D01*
X3889744Y-1400000D01*
X3885316Y-1376468D01*
X3871409Y-1354856D01*
X3850189Y-1340357D01*
X3825000Y-1335256D01*
X3803500Y-1335256D01*
X3803500Y-1259713D01*
X3808581Y-1247477D01*
X3808619Y-1204313D01*
X3792135Y-1164420D01*
X3784214Y-1156485D01*
X3823187Y-1156519D01*
X3835334Y-1151500D01*
X3870829Y-1151500D01*
X4013114Y-1293786D01*
X4046692Y-1316222D01*
X4086300Y-1324100D01*
X4125908Y-1316222D01*
X4130042Y-1313459D01*
X4143046Y-1332921D01*
X4173535Y-1353293D01*
X4209500Y-1360447D01*
X4245465Y-1353293D01*
X4274391Y-1333965D01*
X4279026Y-1339214D01*
X4309390Y-1353765D01*
X4323800Y-1340846D01*
X4323800Y-1233300D01*
X4349200Y-1233300D01*
X4349200Y-1340846D01*
X4363611Y-1353765D01*
X4393974Y-1339214D01*
X4400000Y-1332390D01*
X4406026Y-1339214D01*
X4436390Y-1353765D01*
X4450800Y-1340846D01*
X4450800Y-1233300D01*
X4349200Y-1233300D01*
X4323800Y-1233300D01*
X4321800Y-1233300D01*
X4321800Y-1207900D01*
X4323800Y-1207900D01*
X4323800Y-1100354D01*
X4349200Y-1100354D01*
X4349200Y-1207900D01*
X4450800Y-1207900D01*
X4450800Y-1100354D01*
X4476200Y-1100354D01*
X4476200Y-1207900D01*
X4478200Y-1207900D01*
X4478200Y-1233300D01*
X4476200Y-1233300D01*
X4476200Y-1340846D01*
X4490611Y-1353765D01*
X4520974Y-1339214D01*
X4525609Y-1333965D01*
X4554535Y-1353293D01*
X4590500Y-1360447D01*
X4626465Y-1353293D01*
X4656954Y-1332921D01*
X4677326Y-1302432D01*
X4684480Y-1266467D01*
X4684480Y-1174733D01*
X4677326Y-1138768D01*
X4656954Y-1108279D01*
X4626465Y-1087907D01*
X4590500Y-1080753D01*
X4554535Y-1087907D01*
X4525609Y-1107235D01*
X4520974Y-1101986D01*
X4490611Y-1087435D01*
X4476200Y-1100354D01*
X4450800Y-1100354D01*
X4436390Y-1087435D01*
X4406026Y-1101986D01*
X4400000Y-1108810D01*
X4393974Y-1101986D01*
X4363611Y-1087435D01*
X4349200Y-1100354D01*
X4323800Y-1100354D01*
X4309390Y-1087435D01*
X4279026Y-1101986D01*
X4274391Y-1107235D01*
X4245465Y-1087907D01*
X4209500Y-1080753D01*
X4173535Y-1087907D01*
X4143046Y-1108279D01*
X4133955Y-1121884D01*
X3986886Y-974814D01*
X3968737Y-962688D01*
X4012591Y-950342D01*
X4055702Y-916389D01*
X4082538Y-868523D01*
X4084222Y-859307D01*
X4515778Y-859307D01*
X4517462Y-868523D01*
X4544298Y-916389D01*
X4587409Y-950342D01*
X4640231Y-965213D01*
X4662300Y-949328D01*
X4662300Y-837700D01*
X4687700Y-837700D01*
X4687700Y-949328D01*
X4709769Y-965213D01*
X4762591Y-950342D01*
X4805702Y-916389D01*
X4832538Y-868523D01*
X4834222Y-859307D01*
X4821972Y-837700D01*
X4687700Y-837700D01*
X4662300Y-837700D01*
X4528028Y-837700D01*
X4515778Y-859307D01*
X4084222Y-859307D01*
X4071972Y-837700D01*
X3937700Y-837700D01*
X3937700Y-839700D01*
X3912300Y-839700D01*
X3912300Y-837700D01*
X3778028Y-837700D01*
X3765778Y-859307D01*
X3767462Y-868523D01*
X3794298Y-916389D01*
X3823989Y-939773D01*
X3823377Y-939519D01*
X3780213Y-939481D01*
X3740320Y-955965D01*
X3709772Y-986459D01*
X3693219Y-1026323D01*
X3693181Y-1069487D01*
X3709665Y-1109380D01*
X3717586Y-1117315D01*
X3678613Y-1117281D01*
X3638720Y-1133765D01*
X3608172Y-1164260D01*
X3591619Y-1204123D01*
X3591581Y-1247287D01*
X3596500Y-1259192D01*
X3596500Y-1335256D01*
X3575000Y-1335256D01*
X3551468Y-1339684D01*
X3529856Y-1353591D01*
X3515357Y-1374811D01*
X3510256Y-1400000D01*
X3206720Y-1400000D01*
X3197388Y-1353085D01*
X3166281Y-1306530D01*
X3125830Y-1279501D01*
X3147513Y-1269239D01*
X3185104Y-1227742D01*
X3196439Y-1200375D01*
X3213700Y-1200375D01*
X3213700Y-1284431D01*
X3223367Y-1307770D01*
X3241230Y-1325633D01*
X3264569Y-1335300D01*
X3328625Y-1335300D01*
X3344500Y-1319425D01*
X3344500Y-1184500D01*
X3369900Y-1184500D01*
X3369900Y-1319425D01*
X3385775Y-1335300D01*
X3449831Y-1335300D01*
X3473170Y-1325633D01*
X3491033Y-1307770D01*
X3500700Y-1284431D01*
X3500700Y-1200375D01*
X3484825Y-1184500D01*
X3369900Y-1184500D01*
X3344500Y-1184500D01*
X3229575Y-1184500D01*
X3213700Y-1200375D01*
X3196439Y-1200375D01*
X3201190Y-1188904D01*
X3188991Y-1166700D01*
X3074700Y-1166700D01*
X3074700Y-1168700D01*
X3049300Y-1168700D01*
X3049300Y-1166700D01*
X2935008Y-1166700D01*
X2922810Y-1188904D01*
X2938896Y-1227742D01*
X2976487Y-1269239D01*
X2998170Y-1279501D01*
X2957719Y-1306530D01*
X2942371Y-1329500D01*
X2682916Y-1329500D01*
X2602102Y-1248686D01*
X2602119Y-1229713D01*
X2585635Y-1189820D01*
X2555141Y-1159272D01*
X2515277Y-1142719D01*
X2472113Y-1142681D01*
X2446190Y-1153392D01*
X2435388Y-1099085D01*
X2404281Y-1052530D01*
X2366073Y-1027000D01*
X2404281Y-1001470D01*
X2419629Y-978500D01*
X2521656Y-978500D01*
X2521656Y-1043200D01*
X2526084Y-1066732D01*
X2539991Y-1088344D01*
X2561211Y-1102843D01*
X2586400Y-1107944D01*
X2756400Y-1107944D01*
X2779932Y-1103516D01*
X2801544Y-1089609D01*
X2816043Y-1068389D01*
X2821144Y-1043200D01*
X2821144Y-843200D01*
X2816716Y-819668D01*
X2802809Y-798056D01*
X2781589Y-783557D01*
X2756400Y-778456D01*
X2586400Y-778456D01*
X2562868Y-782884D01*
X2541256Y-796791D01*
X2526757Y-818011D01*
X2526050Y-821500D01*
X2419629Y-821500D01*
X2404281Y-798530D01*
X2357726Y-767423D01*
X2302811Y-756500D01*
X2297189Y-756500D01*
X2242274Y-767423D01*
X2195719Y-798530D01*
X2164612Y-845085D01*
X2153689Y-900000D01*
X2157222Y-917762D01*
X1828492Y-1246492D01*
X1817230Y-1263347D01*
X1808177Y-1265147D01*
X1759558Y-1297633D01*
X1740208Y-1326593D01*
X1558508Y-1144892D01*
X1533041Y-1127876D01*
X1503000Y-1121900D01*
X1038798Y-1121900D01*
X1056380Y-1114635D01*
X1086928Y-1084141D01*
X1103481Y-1044277D01*
X1103519Y-1001113D01*
X1089755Y-967801D01*
X1092671Y-967252D01*
X1103990Y-969544D01*
X1143990Y-969544D01*
X1156171Y-967252D01*
X1167490Y-969544D01*
X1207490Y-969544D01*
X1219671Y-967252D01*
X1230990Y-969544D01*
X1270990Y-969544D01*
X1283171Y-967252D01*
X1294490Y-969544D01*
X1334490Y-969544D01*
X1358022Y-965116D01*
X1379634Y-951209D01*
X1394133Y-929989D01*
X1399234Y-904800D01*
X1399234Y-784800D01*
X1394806Y-761268D01*
X1380899Y-739656D01*
X1359679Y-725157D01*
X1353282Y-723861D01*
X1355308Y-722508D01*
X1402908Y-674908D01*
X1419924Y-649441D01*
X1425900Y-619400D01*
X1425900Y-608544D01*
X1447400Y-608544D01*
X1460637Y-606053D01*
X1444389Y-645183D01*
X1444263Y-789782D01*
X1499482Y-923422D01*
X1601640Y-1025759D01*
X1735183Y-1081211D01*
X1879782Y-1081337D01*
X2013422Y-1026118D01*
X2115759Y-923960D01*
X2171211Y-790417D01*
X2171337Y-645818D01*
X2116118Y-512177D01*
X2013960Y-409841D01*
X1880417Y-354389D01*
X1735818Y-354263D01*
X1602177Y-409482D01*
X1512144Y-499358D01*
X1512144Y-383800D01*
X1507716Y-360268D01*
X1493809Y-338656D01*
X1472589Y-324157D01*
X1447400Y-319056D01*
X1247400Y-319056D01*
X1223868Y-323484D01*
X1202256Y-337391D01*
X1187757Y-358611D01*
X1182656Y-383800D01*
X1182656Y-543800D01*
X1187084Y-567332D01*
X1200991Y-588944D01*
X1213968Y-597811D01*
X1193492Y-611492D01*
X1131982Y-673002D01*
X1131146Y-674253D01*
X1115998Y-651582D01*
X1068912Y-604496D01*
X1070932Y-604116D01*
X1092544Y-590209D01*
X1107043Y-568989D01*
X1112144Y-543800D01*
X1112144Y-383800D01*
X1107716Y-360268D01*
X1093809Y-338656D01*
X1072589Y-324157D01*
X1055812Y-320759D01*
X1063271Y-313300D01*
X2120529Y-313300D01*
X2423614Y-616386D01*
X2457192Y-638822D01*
X2496800Y-646700D01*
X2496801Y-646700D01*
X2522315Y-646700D01*
X2526084Y-666732D01*
X2539991Y-688344D01*
X2561211Y-702843D01*
X2586400Y-707944D01*
X2756400Y-707944D01*
X2779932Y-703516D01*
X2801544Y-689609D01*
X2816043Y-668389D01*
X2820435Y-646700D01*
X2911129Y-646700D01*
X3027277Y-762848D01*
X3004274Y-767423D01*
X2957719Y-798530D01*
X2926612Y-845085D01*
X2915689Y-900000D01*
X2926612Y-954915D01*
X2957719Y-1001470D01*
X2998170Y-1028499D01*
X2976487Y-1038761D01*
X2938896Y-1080258D01*
X2922810Y-1119096D01*
X2935008Y-1141300D01*
X3049300Y-1141300D01*
X3049300Y-1139300D01*
X3074700Y-1139300D01*
X3074700Y-1141300D01*
X3188991Y-1141300D01*
X3201190Y-1119096D01*
X3185104Y-1080258D01*
X3166000Y-1059169D01*
X3213700Y-1059169D01*
X3213700Y-1143225D01*
X3229575Y-1159100D01*
X3344500Y-1159100D01*
X3344500Y-1024175D01*
X3369900Y-1024175D01*
X3369900Y-1159100D01*
X3484825Y-1159100D01*
X3500700Y-1143225D01*
X3500700Y-1059169D01*
X3491033Y-1035830D01*
X3473170Y-1017967D01*
X3449831Y-1008300D01*
X3385775Y-1008300D01*
X3369900Y-1024175D01*
X3344500Y-1024175D01*
X3328625Y-1008300D01*
X3264569Y-1008300D01*
X3241230Y-1017967D01*
X3223367Y-1035830D01*
X3213700Y-1059169D01*
X3166000Y-1059169D01*
X3147513Y-1038761D01*
X3125830Y-1028499D01*
X3166281Y-1001470D01*
X3197388Y-954915D01*
X3208296Y-900075D01*
X3216275Y-892096D01*
X3216884Y-895332D01*
X3230791Y-916944D01*
X3252011Y-931443D01*
X3277200Y-936544D01*
X3437200Y-936544D01*
X3460732Y-932116D01*
X3482344Y-918209D01*
X3496843Y-896989D01*
X3501944Y-871800D01*
X3501944Y-790693D01*
X3765778Y-790693D01*
X3778028Y-812300D01*
X3912300Y-812300D01*
X3912300Y-700672D01*
X3937700Y-700672D01*
X3937700Y-812300D01*
X4071972Y-812300D01*
X4084222Y-790693D01*
X4515778Y-790693D01*
X4528028Y-812300D01*
X4662300Y-812300D01*
X4662300Y-700672D01*
X4687700Y-700672D01*
X4687700Y-812300D01*
X4821972Y-812300D01*
X4834222Y-790693D01*
X4832538Y-781477D01*
X4805702Y-733611D01*
X4762591Y-699658D01*
X4709769Y-684787D01*
X4687700Y-700672D01*
X4662300Y-700672D01*
X4640231Y-684787D01*
X4587409Y-699658D01*
X4544298Y-733611D01*
X4517462Y-781477D01*
X4515778Y-790693D01*
X4084222Y-790693D01*
X4082538Y-781477D01*
X4055702Y-733611D01*
X4012591Y-699658D01*
X3959769Y-684787D01*
X3937700Y-700672D01*
X3912300Y-700672D01*
X3890231Y-684787D01*
X3837409Y-699658D01*
X3794298Y-733611D01*
X3767462Y-781477D01*
X3765778Y-790693D01*
X3501944Y-790693D01*
X3501944Y-671800D01*
X3497516Y-648268D01*
X3483609Y-626656D01*
X3462389Y-612157D01*
X3437200Y-607056D01*
X3277200Y-607056D01*
X3253668Y-611484D01*
X3232056Y-625391D01*
X3217557Y-646611D01*
X3215237Y-658066D01*
X3027186Y-470014D01*
X2993608Y-447578D01*
X2954000Y-439700D01*
X2953999Y-439700D01*
X2820485Y-439700D01*
X2816716Y-419668D01*
X2802809Y-398056D01*
X2781589Y-383557D01*
X2756400Y-378456D01*
X2586400Y-378456D01*
X2562868Y-382884D01*
X2541256Y-396791D01*
X2526757Y-418011D01*
X2525279Y-425308D01*
X2474971Y-375000D01*
X3758297Y-375000D01*
X3768931Y-428461D01*
X3799214Y-473783D01*
X3844536Y-504066D01*
X3897997Y-514700D01*
X3952003Y-514700D01*
X4005464Y-504066D01*
X4050786Y-473783D01*
X4064339Y-453500D01*
X4535661Y-453500D01*
X4549214Y-473783D01*
X4594536Y-504066D01*
X4647997Y-514700D01*
X4702003Y-514700D01*
X4755464Y-504066D01*
X4800786Y-473783D01*
X4831069Y-428461D01*
X4841703Y-375000D01*
X4831069Y-321539D01*
X4800786Y-276217D01*
X4755464Y-245934D01*
X4702003Y-235300D01*
X4647997Y-235300D01*
X4594536Y-245934D01*
X4549214Y-276217D01*
X4535661Y-296500D01*
X4064339Y-296500D01*
X4050786Y-276217D01*
X4005464Y-245934D01*
X3952003Y-235300D01*
X3897997Y-235300D01*
X3844536Y-245934D01*
X3799214Y-276217D01*
X3768931Y-321539D01*
X3758297Y-375000D01*
X2474971Y-375000D01*
X2236586Y-136614D01*
X2203008Y-114178D01*
X2163400Y-106300D01*
X2163400Y-106300D01*
X1020400Y-106300D01*
X1020400Y-106300D01*
X980792Y-114178D01*
X947214Y-136614D01*
X947214Y-136615D01*
X874214Y-209614D01*
X851778Y-243192D01*
X843900Y-282800D01*
X843900Y-282801D01*
X843900Y-319715D01*
X823868Y-323484D01*
X802256Y-337391D01*
X791719Y-352813D01*
X782609Y-338656D01*
X761389Y-324157D01*
X736200Y-319056D01*
X536200Y-319056D01*
X512668Y-323484D01*
X491056Y-337391D01*
X476557Y-358611D01*
X471456Y-383800D01*
X471456Y-543800D01*
X475884Y-567332D01*
X489791Y-588944D01*
X511011Y-603443D01*
X536200Y-608544D01*
X736200Y-608544D01*
X759732Y-604116D01*
X781344Y-590209D01*
X791881Y-574787D01*
X800991Y-588944D01*
X806129Y-592455D01*
X750982Y-647602D01*
X733965Y-673069D01*
X729663Y-694700D01*
X727990Y-703110D01*
X727990Y-720056D01*
X722990Y-720056D01*
X713451Y-721851D01*
X712121Y-721300D01*
X705365Y-721300D01*
X702812Y-723853D01*
X699458Y-724484D01*
X678782Y-737789D01*
X671960Y-730967D01*
X657146Y-724831D01*
X653615Y-721300D01*
X641865Y-721300D01*
X638334Y-724831D01*
X623520Y-730967D01*
X605990Y-748497D01*
X605990Y-737175D01*
X590115Y-721300D01*
X583359Y-721300D01*
X560020Y-730967D01*
X542157Y-748830D01*
X532490Y-772169D01*
X532490Y-816225D01*
X548365Y-832100D01*
X605990Y-832100D01*
X605990Y-826225D01*
X611865Y-832100D01*
X630690Y-832100D01*
X630690Y-857500D01*
X611865Y-857500D01*
X605990Y-863375D01*
X605990Y-857500D01*
X548365Y-857500D01*
X532490Y-873375D01*
X532490Y-917431D01*
X542157Y-940770D01*
X560020Y-958633D01*
X583359Y-968300D01*
X590115Y-968300D01*
X605990Y-952425D01*
X605990Y-941102D01*
X623520Y-958633D01*
X638334Y-964769D01*
X641865Y-968300D01*
X653615Y-968300D01*
X657146Y-964769D01*
X664490Y-961727D01*
X664490Y-1176990D01*
X670466Y-1207031D01*
X687482Y-1232498D01*
X700407Y-1245422D01*
X687020Y-1250967D01*
X679983Y-1258005D01*
X661179Y-1245157D01*
X656531Y-1244216D01*
X653615Y-1241300D01*
X646859Y-1241300D01*
X645307Y-1241943D01*
X635990Y-1240056D01*
X595990Y-1240056D01*
X572458Y-1244484D01*
X550846Y-1258391D01*
X536347Y-1279611D01*
X531246Y-1304800D01*
X531246Y-1424800D01*
X531604Y-1426700D01*
X385400Y-1426700D01*
X355359Y-1432675D01*
X329892Y-1449692D01*
X152092Y-1627492D01*
X135076Y-1652959D01*
X132731Y-1664744D01*
X129100Y-1683000D01*
X129100Y-1699256D01*
X127600Y-1699256D01*
X104068Y-1703684D01*
X82456Y-1717591D01*
X68500Y-1738016D01*
X68500Y-1175000D01*
X115465Y-1175000D01*
X128033Y-1238181D01*
X163822Y-1291743D01*
X217384Y-1327533D01*
X280566Y-1340100D01*
X287035Y-1340100D01*
X350215Y-1327533D01*
X403778Y-1291743D01*
X439567Y-1238181D01*
X452134Y-1175000D01*
X439567Y-1111819D01*
X417103Y-1078200D01*
X421370Y-1076433D01*
X439233Y-1058570D01*
X448900Y-1035231D01*
X448900Y-949575D01*
X433025Y-933700D01*
X296500Y-933700D01*
X296500Y-935700D01*
X271100Y-935700D01*
X271100Y-933700D01*
X134575Y-933700D01*
X118700Y-949575D01*
X118700Y-1035231D01*
X128367Y-1058570D01*
X146230Y-1076433D01*
X150497Y-1078200D01*
X128033Y-1111819D01*
X115465Y-1175000D01*
X68500Y-1175000D01*
X68500Y-806769D01*
X118700Y-806769D01*
X118700Y-892425D01*
X134575Y-908300D01*
X271100Y-908300D01*
X271100Y-771775D01*
X296500Y-771775D01*
X296500Y-908300D01*
X433025Y-908300D01*
X448900Y-892425D01*
X448900Y-806769D01*
X439233Y-783430D01*
X421370Y-765567D01*
X398031Y-755900D01*
X312375Y-755900D01*
X296500Y-771775D01*
X271100Y-771775D01*
X255225Y-755900D01*
X169569Y-755900D01*
X146230Y-765567D01*
X128367Y-783430D01*
X118700Y-806769D01*
X68500Y-806769D01*
X68500Y-492375D01*
X72700Y-492375D01*
X72700Y-556431D01*
X82367Y-579770D01*
X100230Y-597633D01*
X123569Y-607300D01*
X207625Y-607300D01*
X223500Y-591425D01*
X223500Y-476500D01*
X248900Y-476500D01*
X248900Y-591425D01*
X264775Y-607300D01*
X348831Y-607300D01*
X372170Y-597633D01*
X390033Y-579770D01*
X399700Y-556431D01*
X399700Y-492375D01*
X383825Y-476500D01*
X248900Y-476500D01*
X223500Y-476500D01*
X88575Y-476500D01*
X72700Y-492375D01*
X68500Y-492375D01*
X68500Y-371169D01*
X72700Y-371169D01*
X72700Y-435225D01*
X88575Y-451100D01*
X223500Y-451100D01*
X223500Y-336175D01*
X248900Y-336175D01*
X248900Y-451100D01*
X383825Y-451100D01*
X399700Y-435225D01*
X399700Y-371169D01*
X390033Y-347830D01*
X372170Y-329967D01*
X348831Y-320300D01*
X264775Y-320300D01*
X248900Y-336175D01*
X223500Y-336175D01*
X207625Y-320300D01*
X123569Y-320300D01*
X100230Y-329967D01*
X82367Y-347830D01*
X72700Y-371169D01*
X68500Y-371169D01*
X68500Y-68500D01*
X4931500Y-68500D01*
X4931500Y-4931500D01*
G36*
X1756692Y-2225508D02*
X1782159Y-2242525D01*
X1812200Y-2248500D01*
X2180371Y-2248500D01*
X2195719Y-2271470D01*
X2233928Y-2297000D01*
X2195719Y-2322530D01*
X2164612Y-2369085D01*
X2153689Y-2424000D01*
X2164612Y-2478915D01*
X2195719Y-2525470D01*
X2236170Y-2552499D01*
X2214487Y-2562761D01*
X2176896Y-2604258D01*
X2168401Y-2624769D01*
X2161633Y-2608430D01*
X2143770Y-2590567D01*
X2120431Y-2580900D01*
X2036375Y-2580900D01*
X2020500Y-2596775D01*
X2020500Y-2711700D01*
X2022500Y-2711700D01*
X2022500Y-2737100D01*
X2020500Y-2737100D01*
X2020500Y-2739100D01*
X1995100Y-2739100D01*
X1995100Y-2737100D01*
X1860175Y-2737100D01*
X1844300Y-2752975D01*
X1844300Y-2817031D01*
X1853967Y-2840370D01*
X1867097Y-2853500D01*
X1748762Y-2853500D01*
X1752944Y-2850809D01*
X1767443Y-2829589D01*
X1772544Y-2804400D01*
X1772544Y-2644400D01*
X1770167Y-2631769D01*
X1844300Y-2631769D01*
X1844300Y-2695825D01*
X1860175Y-2711700D01*
X1995100Y-2711700D01*
X1995100Y-2596775D01*
X1979225Y-2580900D01*
X1895169Y-2580900D01*
X1871830Y-2590567D01*
X1853967Y-2608430D01*
X1844300Y-2631769D01*
X1770167Y-2631769D01*
X1768116Y-2620868D01*
X1754209Y-2599256D01*
X1732989Y-2584757D01*
X1707800Y-2579656D01*
X1572574Y-2579656D01*
X1594928Y-2557341D01*
X1611481Y-2517477D01*
X1611519Y-2474313D01*
X1595035Y-2434420D01*
X1593740Y-2433122D01*
X1593740Y-2419544D01*
X1600240Y-2419544D01*
X1623772Y-2415116D01*
X1645384Y-2401209D01*
X1659883Y-2379989D01*
X1664984Y-2354800D01*
X1664984Y-2154800D01*
X1660556Y-2131268D01*
X1657133Y-2125949D01*
X1756692Y-2225508D01*
X1756692Y-2225508D01*
G37*
X1756692Y-2225508D02*
X1782159Y-2242525D01*
X1812200Y-2248500D01*
X2180371Y-2248500D01*
X2195719Y-2271470D01*
X2233928Y-2297000D01*
X2195719Y-2322530D01*
X2164612Y-2369085D01*
X2153689Y-2424000D01*
X2164612Y-2478915D01*
X2195719Y-2525470D01*
X2236170Y-2552499D01*
X2214487Y-2562761D01*
X2176896Y-2604258D01*
X2168401Y-2624769D01*
X2161633Y-2608430D01*
X2143770Y-2590567D01*
X2120431Y-2580900D01*
X2036375Y-2580900D01*
X2020500Y-2596775D01*
X2020500Y-2711700D01*
X2022500Y-2711700D01*
X2022500Y-2737100D01*
X2020500Y-2737100D01*
X2020500Y-2739100D01*
X1995100Y-2739100D01*
X1995100Y-2737100D01*
X1860175Y-2737100D01*
X1844300Y-2752975D01*
X1844300Y-2817031D01*
X1853967Y-2840370D01*
X1867097Y-2853500D01*
X1748762Y-2853500D01*
X1752944Y-2850809D01*
X1767443Y-2829589D01*
X1772544Y-2804400D01*
X1772544Y-2644400D01*
X1770167Y-2631769D01*
X1844300Y-2631769D01*
X1844300Y-2695825D01*
X1860175Y-2711700D01*
X1995100Y-2711700D01*
X1995100Y-2596775D01*
X1979225Y-2580900D01*
X1895169Y-2580900D01*
X1871830Y-2590567D01*
X1853967Y-2608430D01*
X1844300Y-2631769D01*
X1770167Y-2631769D01*
X1768116Y-2620868D01*
X1754209Y-2599256D01*
X1732989Y-2584757D01*
X1707800Y-2579656D01*
X1572574Y-2579656D01*
X1594928Y-2557341D01*
X1611481Y-2517477D01*
X1611519Y-2474313D01*
X1595035Y-2434420D01*
X1593740Y-2433122D01*
X1593740Y-2419544D01*
X1600240Y-2419544D01*
X1623772Y-2415116D01*
X1645384Y-2401209D01*
X1659883Y-2379989D01*
X1664984Y-2354800D01*
X1664984Y-2154800D01*
X1660556Y-2131268D01*
X1657133Y-2125949D01*
X1756692Y-2225508D01*
G36*
X757690Y-1377500D02*
X728290Y-1377500D01*
X728290Y-1352100D01*
X757690Y-1352100D01*
X757690Y-1377500D01*
X757690Y-1377500D01*
G37*
X757690Y-1377500D02*
X728290Y-1377500D01*
X728290Y-1352100D01*
X757690Y-1352100D01*
X757690Y-1377500D01*
M02*
